<?xml version="1.0" encoding="UTF-8" standalone="no"?>
<!DOCTYPE svg PUBLIC "-//W3C//DTD SVG 1.1//EN"
 "http://www.w3.org/Graphics/SVG/1.1/DTD/svg11.dtd">
<!-- Generated by graphviz version 2.38.0 (20140413.2041)
 -->
<!-- Title: shells Pages: 1 -->
<svg width="759pt" height="1052pt"
 viewBox="0.00 0.00 758.50 1052.00" xmlns="http://www.w3.org/2000/svg" xmlns:xlink="http://www.w3.org/1999/xlink">
<g id="graph0" class="graph" transform="scale(1 1) rotate(0) translate(4 1048)">
<title>shells</title>
<polygon fill="white" stroke="none" points="-4,4 -4,-1048 754.5,-1048 754.5,4 -4,4"/>
<!-- 1971 -->
<g id="node1" class="node"><title>1971</title>
<text text-anchor="middle" x="37.5" y="-1022.3" font-family="Times New Roman,serif" font-size="14.00">1971</text>
</g>
<!-- 1975&#45;1977 -->
<g id="node2" class="node"><title>1975&#45;1977</title>
<text text-anchor="middle" x="37.5" y="-950.3" font-family="Times New Roman,serif" font-size="14.00">1975&#45;1977</text>
</g>
<!-- 1971&#45;&gt;1975&#45;1977 -->
<!-- 1978 -->
<g id="node3" class="node"><title>1978</title>
<text text-anchor="middle" x="37.5" y="-878.3" font-family="Times New Roman,serif" font-size="14.00">1978</text>
</g>
<!-- 1975&#45;1977&#45;&gt;1978 -->
<!-- 1979 -->
<g id="node4" class="node"><title>1979</title>
<text text-anchor="middle" x="37.5" y="-806.3" font-family="Times New Roman,serif" font-size="14.00">1979</text>
</g>
<!-- 1978&#45;&gt;1979 -->
<!-- ? -->
<g id="node5" class="node"><title>?</title>
<text text-anchor="middle" x="37.5" y="-734.3" font-family="Times New Roman,serif" font-size="14.00">?</text>
</g>
<!-- 1979&#45;&gt;? -->
<!-- 1983 -->
<g id="node6" class="node"><title>1983</title>
<text text-anchor="middle" x="37.5" y="-662.3" font-family="Times New Roman,serif" font-size="14.00">1983</text>
</g>
<!-- ?&#45;&gt;1983 -->
<!-- 1987&#45;1989 -->
<g id="node7" class="node"><title>1987&#45;1989</title>
<text text-anchor="middle" x="37.5" y="-590.3" font-family="Times New Roman,serif" font-size="14.00">1987&#45;1989</text>
</g>
<!-- 1983&#45;&gt;1987&#45;1989 -->
<!-- 1990 -->
<g id="node8" class="node"><title>1990</title>
<text text-anchor="middle" x="37.5" y="-518.3" font-family="Times New Roman,serif" font-size="14.00">1990</text>
</g>
<!-- 1987&#45;1989&#45;&gt;1990 -->
<!-- 1992 -->
<g id="node9" class="node"><title>1992</title>
<text text-anchor="middle" x="37.5" y="-446.3" font-family="Times New Roman,serif" font-size="14.00">1992</text>
</g>
<!-- 1990&#45;&gt;1992 -->
<!-- 1993 -->
<g id="node10" class="node"><title>1993</title>
<text text-anchor="middle" x="37.5" y="-374.3" font-family="Times New Roman,serif" font-size="14.00">1993</text>
</g>
<!-- 1992&#45;&gt;1993 -->
<!-- 1995 -->
<g id="node11" class="node"><title>1995</title>
<text text-anchor="middle" x="37.5" y="-302.3" font-family="Times New Roman,serif" font-size="14.00">1995</text>
</g>
<!-- 1993&#45;&gt;1995 -->
<!-- 1996 -->
<g id="node12" class="node"><title>1996</title>
<text text-anchor="middle" x="37.5" y="-230.3" font-family="Times New Roman,serif" font-size="14.00">1996</text>
</g>
<!-- 1995&#45;&gt;1996 -->
<!-- 1999 -->
<g id="node13" class="node"><title>1999</title>
<text text-anchor="middle" x="37.5" y="-158.3" font-family="Times New Roman,serif" font-size="14.00">1999</text>
</g>
<!-- 1996&#45;&gt;1999 -->
<!-- 2002 -->
<g id="node14" class="node"><title>2002</title>
<text text-anchor="middle" x="37.5" y="-86.3" font-family="Times New Roman,serif" font-size="14.00">2002</text>
</g>
<!-- 1999&#45;&gt;2002 -->
<!-- 2006 -->
<g id="node15" class="node"><title>2006</title>
<text text-anchor="middle" x="37.5" y="-14.3" font-family="Times New Roman,serif" font-size="14.00">2006</text>
</g>
<!-- 2002&#45;&gt;2006 -->
<!-- Thompson shell -->
<g id="node16" class="node"><title>Thompson shell</title>
<polygon fill="none" stroke="black" points="270,-1044 163,-1044 163,-1008 270,-1008 270,-1044"/>
<text text-anchor="middle" x="216.5" y="-1022.3" font-family="Times New Roman,serif" font-size="14.00">Thompson shell</text>
</g>
<!-- Bourne shell -->
<g id="node17" class="node"><title>Bourne shell</title>
<polygon fill="none" stroke="black" points="336.5,-828 250.5,-828 250.5,-792 336.5,-792 336.5,-828"/>
<text text-anchor="middle" x="293.5" y="-806.3" font-family="Times New Roman,serif" font-size="14.00">Bourne shell</text>
</g>
<!-- Thompson shell&#45;&gt;Bourne shell -->
<g id="edge15" class="edge"><title>Thompson shell&#45;&gt;Bourne shell</title>
<path fill="none" stroke="black" d="M236.233,-1007.72C245.925,-998.147 256.908,-985.478 263.5,-972 284.71,-928.629 290.982,-871.959 292.801,-838.715"/>
<polygon fill="black" stroke="black" points="296.312,-838.538 293.262,-828.392 289.319,-838.225 296.312,-838.538"/>
</g>
<!-- PWB shell -->
<g id="node18" class="node"><title>PWB shell</title>
<polygon fill="none" stroke="black" points="254.5,-972 178.5,-972 178.5,-936 254.5,-936 254.5,-972"/>
<text text-anchor="middle" x="216.5" y="-950.3" font-family="Times New Roman,serif" font-size="14.00">PWB shell</text>
</g>
<!-- Thompson shell&#45;&gt;PWB shell -->
<g id="edge16" class="edge"><title>Thompson shell&#45;&gt;PWB shell</title>
<path fill="none" stroke="black" d="M216.5,-1007.7C216.5,-999.983 216.5,-990.712 216.5,-982.112"/>
<polygon fill="black" stroke="black" points="220,-982.104 216.5,-972.104 213,-982.104 220,-982.104"/>
</g>
<!-- C shell -->
<g id="node19" class="node"><title>C shell</title>
<polygon fill="none" stroke="black" points="162,-900 107,-900 107,-864 162,-864 162,-900"/>
<text text-anchor="middle" x="134.5" y="-878.3" font-family="Times New Roman,serif" font-size="14.00">C shell</text>
</g>
<!-- Thompson shell&#45;&gt;C shell -->
<g id="edge36" class="edge"><title>Thompson shell&#45;&gt;C shell</title>
<path fill="none" stroke="grey" stroke-dasharray="5,2" d="M198.257,-1007.63C188.748,-997.841 177.472,-985 169.5,-972 157.546,-952.505 148.323,-928.225 142.354,-909.952"/>
<polygon fill="grey" stroke="grey" points="145.635,-908.718 139.297,-900.228 138.957,-910.817 145.635,-908.718"/>
</g>
<!-- KornShell -->
<g id="node21" class="node"><title>KornShell</title>
<polygon fill="none" stroke="black" points="382.5,-684 310.5,-684 310.5,-648 382.5,-648 382.5,-684"/>
<text text-anchor="middle" x="346.5" y="-662.3" font-family="Times New Roman,serif" font-size="14.00">KornShell</text>
</g>
<!-- Bourne shell&#45;&gt;KornShell -->
<g id="edge18" class="edge"><title>Bourne shell&#45;&gt;KornShell</title>
<path fill="none" stroke="black" d="M299.893,-791.871C309.005,-767.457 325.813,-722.426 336.559,-693.635"/>
<polygon fill="black" stroke="black" points="339.867,-694.782 340.084,-684.189 333.308,-692.334 339.867,-694.782"/>
</g>
<!-- rc -->
<g id="node22" class="node"><title>rc</title>
<polygon fill="none" stroke="black" points="750.5,-756 696.5,-756 696.5,-720 750.5,-720 750.5,-756"/>
<text text-anchor="middle" x="723.5" y="-734.3" font-family="Times New Roman,serif" font-size="14.00">rc</text>
</g>
<!-- Bourne shell&#45;&gt;rc -->
<g id="edge19" class="edge"><title>Bourne shell&#45;&gt;rc</title>
<path fill="none" stroke="black" d="M336.67,-807.513C408.345,-804.12 556.121,-793.191 686.566,-755.753"/>
<polygon fill="black" stroke="black" points="687.713,-759.064 696.325,-752.892 685.744,-752.347 687.713,-759.064"/>
</g>
<!-- Charles Forsyth&#39;s public domain V7 shell -->
<g id="node23" class="node"><title>Charles Forsyth&#39;s public domain V7 shell</title>
<polygon fill="none" stroke="black" points="678,-756 431,-756 431,-720 678,-720 678,-756"/>
<text text-anchor="middle" x="554.5" y="-734.3" font-family="Times New Roman,serif" font-size="14.00">Charles Forsyth&#39;s public domain V7 shell</text>
</g>
<!-- Bourne shell&#45;&gt;Charles Forsyth&#39;s public domain V7 shell -->
<g id="edge33" class="edge"><title>Bourne shell&#45;&gt;Charles Forsyth&#39;s public domain V7 shell</title>
<path fill="none" stroke="grey" stroke-dasharray="5,2" d="M336.599,-797.441C375.799,-786.927 434.472,-771.192 481.062,-758.696"/>
<polygon fill="grey" stroke="grey" points="482.057,-762.053 490.809,-756.082 480.243,-755.292 482.057,-762.053"/>
</g>
<!-- Almquist shell -->
<g id="node30" class="node"><title>Almquist shell</title>
<polygon fill="none" stroke="black" points="191,-612 96,-612 96,-576 191,-576 191,-612"/>
<text text-anchor="middle" x="143.5" y="-590.3" font-family="Times New Roman,serif" font-size="14.00">Almquist shell</text>
</g>
<!-- Bourne shell&#45;&gt;Almquist shell -->
<g id="edge35" class="edge"><title>Bourne shell&#45;&gt;Almquist shell</title>
<path fill="none" stroke="grey" stroke-dasharray="5,2" d="M275.253,-791.759C251.761,-768.84 210.729,-726.292 183.5,-684 170.811,-664.291 160.152,-639.885 153.037,-621.619"/>
<polygon fill="grey" stroke="grey" points="156.274,-620.283 149.458,-612.171 149.728,-622.762 156.274,-620.283"/>
</g>
<!-- Bash -->
<g id="node34" class="node"><title>Bash</title>
<polygon fill="none" stroke="black" points="301.5,-612 247.5,-612 247.5,-576 301.5,-576 301.5,-612"/>
<text text-anchor="middle" x="274.5" y="-590.3" font-family="Times New Roman,serif" font-size="14.00">Bash</text>
</g>
<!-- Bourne shell&#45;&gt;Bash -->
<g id="edge34" class="edge"><title>Bourne shell&#45;&gt;Bash</title>
<path fill="none" stroke="grey" stroke-dasharray="5,2" d="M291.977,-791.849C288.691,-754.832 280.909,-667.181 276.931,-622.386"/>
<polygon fill="grey" stroke="grey" points="280.401,-621.884 276.03,-612.232 273.428,-622.503 280.401,-621.884"/>
</g>
<!-- tcsh -->
<g id="node20" class="node"><title>tcsh</title>
<polygon fill="none" stroke="black" points="246.5,-684 192.5,-684 192.5,-648 246.5,-648 246.5,-684"/>
<text text-anchor="middle" x="219.5" y="-662.3" font-family="Times New Roman,serif" font-size="14.00">tcsh</text>
</g>
<!-- C shell&#45;&gt;tcsh -->
<g id="edge17" class="edge"><title>C shell&#45;&gt;tcsh</title>
<path fill="none" stroke="black" d="M141.312,-863.849C156.109,-826.597 191.272,-738.067 208.959,-693.539"/>
<polygon fill="black" stroke="black" points="212.217,-694.818 212.655,-684.232 205.711,-692.234 212.217,-694.818"/>
</g>
<!-- zsh -->
<g id="node36" class="node"><title>zsh</title>
<polygon fill="none" stroke="black" points="309.5,-540 255.5,-540 255.5,-504 309.5,-504 309.5,-540"/>
<text text-anchor="middle" x="282.5" y="-518.3" font-family="Times New Roman,serif" font-size="14.00">zsh</text>
</g>
<!-- tcsh&#45;&gt;zsh -->
<g id="edge32" class="edge"><title>tcsh&#45;&gt;zsh</title>
<path fill="none" stroke="grey" stroke-dasharray="5,2" d="M220.717,-647.811C222.575,-629.282 227.192,-599.314 238.5,-576 243.404,-565.889 250.637,-556.06 257.827,-547.668"/>
<polygon fill="grey" stroke="grey" points="260.548,-549.876 264.631,-540.1 255.342,-545.196 260.548,-549.876"/>
</g>
<!-- ksh88 -->
<g id="node26" class="node"><title>ksh88</title>
<polygon fill="none" stroke="black" points="373.5,-612 319.5,-612 319.5,-576 373.5,-576 373.5,-612"/>
<text text-anchor="middle" x="346.5" y="-590.3" font-family="Times New Roman,serif" font-size="14.00">ksh88</text>
</g>
<!-- KornShell&#45;&gt;ksh88 -->
<g id="edge22" class="edge"><title>KornShell&#45;&gt;ksh88</title>
<path fill="none" stroke="black" d="M346.5,-647.697C346.5,-639.983 346.5,-630.712 346.5,-622.112"/>
<polygon fill="black" stroke="black" points="350,-622.104 346.5,-612.104 343,-622.104 350,-622.104"/>
</g>
<!-- ksh93 -->
<g id="node27" class="node"><title>ksh93</title>
<polygon fill="none" stroke="black" points="504.5,-396 450.5,-396 450.5,-360 504.5,-360 504.5,-396"/>
<text text-anchor="middle" x="477.5" y="-374.3" font-family="Times New Roman,serif" font-size="14.00">ksh93</text>
</g>
<!-- KornShell&#45;&gt;ksh93 -->
<g id="edge23" class="edge"><title>KornShell&#45;&gt;ksh93</title>
<path fill="none" stroke="black" d="M367.731,-647.968C378.512,-638.377 391.077,-625.61 399.5,-612 441.379,-544.336 463.642,-451.563 472.639,-406.204"/>
<polygon fill="black" stroke="black" points="476.102,-406.727 474.55,-396.246 469.228,-405.407 476.102,-406.727"/>
</g>
<!-- KornShell&#45;&gt;zsh -->
<g id="edge31" class="edge"><title>KornShell&#45;&gt;zsh</title>
<path fill="none" stroke="grey" stroke-dasharray="5,2" d="M362.567,-647.853C377.856,-629.36 396.594,-599.421 382.5,-576 368.821,-553.269 341.754,-539.772 319.226,-532.092"/>
<polygon fill="grey" stroke="grey" points="320.171,-528.721 309.581,-529.054 318.068,-535.397 320.171,-528.721"/>
</g>
<!-- es -->
<g id="node35" class="node"><title>es</title>
<polygon fill="none" stroke="black" points="750.5,-540 696.5,-540 696.5,-504 750.5,-504 750.5,-540"/>
<text text-anchor="middle" x="723.5" y="-518.3" font-family="Times New Roman,serif" font-size="14.00">es</text>
</g>
<!-- rc&#45;&gt;es -->
<g id="edge37" class="edge"><title>rc&#45;&gt;es</title>
<path fill="none" stroke="grey" stroke-dasharray="5,2" d="M723.5,-719.849C723.5,-682.832 723.5,-595.181 723.5,-550.386"/>
<polygon fill="grey" stroke="grey" points="727,-550.232 723.5,-540.232 720,-550.232 727,-550.232"/>
</g>
<!-- pdksh -->
<g id="node25" class="node"><title>pdksh</title>
<polygon fill="none" stroke="black" points="521.5,-612 467.5,-612 467.5,-576 521.5,-576 521.5,-612"/>
<text text-anchor="middle" x="494.5" y="-590.3" font-family="Times New Roman,serif" font-size="14.00">pdksh</text>
</g>
<!-- Charles Forsyth&#39;s public domain V7 shell&#45;&gt;pdksh -->
<g id="edge20" class="edge"><title>Charles Forsyth&#39;s public domain V7 shell&#45;&gt;pdksh</title>
<path fill="none" stroke="black" d="M547.263,-719.871C536.947,-695.457 517.919,-650.426 505.754,-621.635"/>
<polygon fill="black" stroke="black" points="508.879,-620.038 501.763,-612.189 502.431,-622.763 508.879,-620.038"/>
</g>
<!-- BRL shell -->
<g id="node24" class="node"><title>BRL shell</title>
<polygon fill="none" stroke="black" points="412.5,-756 340.5,-756 340.5,-720 412.5,-720 412.5,-756"/>
<text text-anchor="middle" x="376.5" y="-734.3" font-family="Times New Roman,serif" font-size="14.00">BRL shell</text>
</g>
<!-- BRL shell&#45;&gt;pdksh -->
<g id="edge21" class="edge"><title>BRL shell&#45;&gt;pdksh</title>
<path fill="none" stroke="black" d="M390.734,-719.871C411.376,-695.031 449.754,-648.846 473.608,-620.142"/>
<polygon fill="black" stroke="black" points="476.517,-622.117 480.216,-612.189 471.133,-617.643 476.517,-622.117"/>
</g>
<!-- mksh -->
<g id="node33" class="node"><title>mksh</title>
<polygon fill="none" stroke="black" points="428.5,-108 374.5,-108 374.5,-72 428.5,-72 428.5,-108"/>
<text text-anchor="middle" x="401.5" y="-86.3" font-family="Times New Roman,serif" font-size="14.00">mksh</text>
</g>
<!-- pdksh&#45;&gt;mksh -->
<g id="edge28" class="edge"><title>pdksh&#45;&gt;mksh</title>
<path fill="none" stroke="black" d="M473.397,-575.68C445.958,-551.075 401.5,-503.161 401.5,-451 401.5,-451 401.5,-451 401.5,-233 401.5,-192.996 401.5,-146.653 401.5,-118.08"/>
<polygon fill="black" stroke="black" points="405,-118.049 401.5,-108.049 398,-118.049 405,-118.049"/>
</g>
<!-- ksh88&#45;&gt;pdksh -->
<g id="edge29" class="edge"><title>ksh88&#45;&gt;pdksh</title>
<path fill="none" stroke="grey" stroke-dasharray="5,2" d="M373.672,-594C401.416,-594 429.16,-594 456.903,-594"/>
<polygon fill="grey" stroke="grey" points="457.125,-597.5 467.125,-594 457.125,-590.5 457.125,-597.5"/>
</g>
<!-- ksh93&#45;&gt;pdksh -->
<g id="edge30" class="edge"><title>ksh93&#45;&gt;pdksh</title>
<path fill="none" stroke="grey" stroke-dasharray="5,2" d="M478.869,-396.232C481.815,-433.324 488.779,-520.981 492.332,-565.712"/>
<polygon fill="grey" stroke="grey" points="488.857,-566.158 493.138,-575.849 495.835,-565.603 488.857,-566.158"/>
</g>
<!-- dtksh -->
<g id="node28" class="node"><title>dtksh</title>
<polygon fill="none" stroke="black" points="545.5,-324 491.5,-324 491.5,-288 545.5,-288 545.5,-324"/>
<text text-anchor="middle" x="518.5" y="-302.3" font-family="Times New Roman,serif" font-size="14.00">dtksh</text>
</g>
<!-- ksh93&#45;&gt;dtksh -->
<g id="edge24" class="edge"><title>ksh93&#45;&gt;dtksh</title>
<path fill="none" stroke="black" d="M487.635,-359.697C492.352,-351.644 498.062,-341.894 503.282,-332.982"/>
<polygon fill="black" stroke="black" points="506.448,-334.502 508.482,-324.104 500.408,-330.964 506.448,-334.502"/>
</g>
<!-- tksh -->
<g id="node29" class="node"><title>tksh</title>
<polygon fill="none" stroke="black" points="490.5,-252 436.5,-252 436.5,-216 490.5,-216 490.5,-252"/>
<text text-anchor="middle" x="463.5" y="-230.3" font-family="Times New Roman,serif" font-size="14.00">tksh</text>
</g>
<!-- ksh93&#45;&gt;tksh -->
<g id="edge25" class="edge"><title>ksh93&#45;&gt;tksh</title>
<path fill="none" stroke="black" d="M475.811,-359.871C473.425,-335.67 469.042,-291.211 466.201,-262.393"/>
<polygon fill="black" stroke="black" points="469.659,-261.798 465.195,-252.189 462.693,-262.484 469.659,-261.798"/>
</g>
<!-- dash -->
<g id="node31" class="node"><title>dash</title>
<polygon fill="none" stroke="black" points="153.5,-108 99.5,-108 99.5,-72 153.5,-72 153.5,-108"/>
<text text-anchor="middle" x="126.5" y="-86.3" font-family="Times New Roman,serif" font-size="14.00">dash</text>
</g>
<!-- Almquist shell&#45;&gt;dash -->
<g id="edge26" class="edge"><title>Almquist shell&#45;&gt;dash</title>
<path fill="none" stroke="black" d="M140.06,-575.592C135.092,-548.896 126.5,-496.188 126.5,-451 126.5,-451 126.5,-451 126.5,-233 126.5,-192.996 126.5,-146.653 126.5,-118.08"/>
<polygon fill="black" stroke="black" points="130,-118.049 126.5,-108.049 123,-118.049 130,-118.049"/>
</g>
<!-- BusyBox -->
<g id="node32" class="node"><title>BusyBox</title>
<polygon fill="none" stroke="black" points="222.5,-180 154.5,-180 154.5,-144 222.5,-144 222.5,-180"/>
<text text-anchor="middle" x="188.5" y="-158.3" font-family="Times New Roman,serif" font-size="14.00">BusyBox</text>
</g>
<!-- Almquist shell&#45;&gt;BusyBox -->
<g id="edge27" class="edge"><title>Almquist shell&#45;&gt;BusyBox</title>
<path fill="none" stroke="black" d="M150.178,-575.811C159.821,-549.402 176.5,-497.064 176.5,-451 176.5,-451 176.5,-451 176.5,-305 176.5,-264.853 181.321,-218.548 184.852,-190.022"/>
<polygon fill="black" stroke="black" points="188.336,-190.373 186.129,-180.01 181.392,-189.487 188.336,-190.373"/>
</g>
<!-- Toybox -->
<g id="node37" class="node"><title>Toybox</title>
<polygon fill="none" stroke="black" points="219.5,-36 157.5,-36 157.5,-0 219.5,-0 219.5,-36"/>
<text text-anchor="middle" x="188.5" y="-14.3" font-family="Times New Roman,serif" font-size="14.00">Toybox</text>
</g>
<!-- BusyBox&#45;&gt;Toybox -->
<g id="edge38" class="edge"><title>BusyBox&#45;&gt;Toybox</title>
<path fill="none" stroke="grey" stroke-dasharray="5,2" d="M188.5,-143.871C188.5,-119.67 188.5,-75.2108 188.5,-46.3932"/>
<polygon fill="grey" stroke="grey" points="192,-46.1892 188.5,-36.1893 185,-46.1893 192,-46.1892"/>
</g>
</g>
</svg>
