<?xml version="1.0" encoding="UTF-8" standalone="no"?>
<!DOCTYPE svg PUBLIC "-//W3C//DTD SVG 1.1//EN"
 "http://www.w3.org/Graphics/SVG/1.1/DTD/svg11.dtd">
<!-- Generated by graphviz version 2.38.0 (20140413.2041)
 -->
<!-- Title: shells Pages: 1 -->
<svg width="670pt" height="1052pt"
 viewBox="0.00 0.00 669.50 1052.00" xmlns="http://www.w3.org/2000/svg" xmlns:xlink="http://www.w3.org/1999/xlink">
<g id="graph0" class="graph" transform="scale(1 1) rotate(0) translate(4 1048)">
<title>shells</title>
<polygon fill="white" stroke="none" points="-4,4 -4,-1048 665.5,-1048 665.5,4 -4,4"/>
<!-- 1971 -->
<g id="node1" class="node"><title>1971</title>
<text text-anchor="middle" x="37.5" y="-1022.3" font-family="Times New Roman,serif" font-size="14.00">1971</text>
</g>
<!-- 1975&#45;1977 -->
<g id="node2" class="node"><title>1975&#45;1977</title>
<text text-anchor="middle" x="37.5" y="-950.3" font-family="Times New Roman,serif" font-size="14.00">1975&#45;1977</text>
</g>
<!-- 1971&#45;&gt;1975&#45;1977 -->
<!-- 1978 -->
<g id="node3" class="node"><title>1978</title>
<text text-anchor="middle" x="37.5" y="-878.3" font-family="Times New Roman,serif" font-size="14.00">1978</text>
</g>
<!-- 1975&#45;1977&#45;&gt;1978 -->
<!-- 1979 -->
<g id="node4" class="node"><title>1979</title>
<text text-anchor="middle" x="37.5" y="-806.3" font-family="Times New Roman,serif" font-size="14.00">1979</text>
</g>
<!-- 1978&#45;&gt;1979 -->
<!-- ? -->
<g id="node5" class="node"><title>?</title>
<text text-anchor="middle" x="37.5" y="-734.3" font-family="Times New Roman,serif" font-size="14.00">?</text>
</g>
<!-- 1979&#45;&gt;? -->
<!-- 1983 -->
<g id="node6" class="node"><title>1983</title>
<text text-anchor="middle" x="37.5" y="-662.3" font-family="Times New Roman,serif" font-size="14.00">1983</text>
</g>
<!-- ?&#45;&gt;1983 -->
<!-- 1987&#45;1989 -->
<g id="node7" class="node"><title>1987&#45;1989</title>
<text text-anchor="middle" x="37.5" y="-590.3" font-family="Times New Roman,serif" font-size="14.00">1987&#45;1989</text>
</g>
<!-- 1983&#45;&gt;1987&#45;1989 -->
<!-- 1990 -->
<g id="node8" class="node"><title>1990</title>
<text text-anchor="middle" x="37.5" y="-518.3" font-family="Times New Roman,serif" font-size="14.00">1990</text>
</g>
<!-- 1987&#45;1989&#45;&gt;1990 -->
<!-- 1993 -->
<g id="node9" class="node"><title>1993</title>
<text text-anchor="middle" x="37.5" y="-446.3" font-family="Times New Roman,serif" font-size="14.00">1993</text>
</g>
<!-- 1990&#45;&gt;1993 -->
<!-- 1995 -->
<g id="node10" class="node"><title>1995</title>
<text text-anchor="middle" x="37.5" y="-374.3" font-family="Times New Roman,serif" font-size="14.00">1995</text>
</g>
<!-- 1993&#45;&gt;1995 -->
<!-- 1996 -->
<g id="node11" class="node"><title>1996</title>
<text text-anchor="middle" x="37.5" y="-302.3" font-family="Times New Roman,serif" font-size="14.00">1996</text>
</g>
<!-- 1995&#45;&gt;1996 -->
<!-- 1999 -->
<g id="node12" class="node"><title>1999</title>
<text text-anchor="middle" x="37.5" y="-230.3" font-family="Times New Roman,serif" font-size="14.00">1999</text>
</g>
<!-- 1996&#45;&gt;1999 -->
<!-- 2002 -->
<g id="node13" class="node"><title>2002</title>
<text text-anchor="middle" x="37.5" y="-158.3" font-family="Times New Roman,serif" font-size="14.00">2002</text>
</g>
<!-- 1999&#45;&gt;2002 -->
<!-- 2005 -->
<g id="node14" class="node"><title>2005</title>
<text text-anchor="middle" x="37.5" y="-86.3" font-family="Times New Roman,serif" font-size="14.00">2005</text>
</g>
<!-- 2002&#45;&gt;2005 -->
<!-- 2006 -->
<g id="node15" class="node"><title>2006</title>
<text text-anchor="middle" x="37.5" y="-14.3" font-family="Times New Roman,serif" font-size="14.00">2006</text>
</g>
<!-- 2005&#45;&gt;2006 -->
<!-- Thompson shell -->
<g id="node16" class="node"><title>Thompson shell</title>
<polygon fill="chartreuse" stroke="chartreuse" points="487,-1044 380,-1044 380,-1008 487,-1008 487,-1044"/>
<text text-anchor="middle" x="433.5" y="-1022.3" font-family="Times New Roman,serif" font-size="14.00">Thompson shell</text>
</g>
<!-- PWB shell -->
<g id="node17" class="node"><title>PWB shell</title>
<polygon fill="chartreuse" stroke="chartreuse" points="405.5,-972 329.5,-972 329.5,-936 405.5,-936 405.5,-972"/>
<text text-anchor="middle" x="367.5" y="-950.3" font-family="Times New Roman,serif" font-size="14.00">PWB shell</text>
</g>
<!-- PWB shell&#45;&gt;Thompson shell -->
<g id="edge19" class="edge"><title>PWB shell&#45;&gt;Thompson shell</title>
<path fill="none" stroke="black" d="M383.627,-972.104C391.591,-980.552 401.35,-990.901 410.116,-1000.2"/>
<polygon fill="black" stroke="black" points="407.779,-1002.82 417.185,-1007.7 412.872,-998.02 407.779,-1002.82"/>
</g>
<!-- Bourne shell -->
<g id="node18" class="node"><title>Bourne shell</title>
<polygon fill="chartreuse" stroke="chartreuse" points="436.5,-828 350.5,-828 350.5,-792 436.5,-792 436.5,-828"/>
<text text-anchor="middle" x="393.5" y="-806.3" font-family="Times New Roman,serif" font-size="14.00">Bourne shell</text>
</g>
<!-- Bourne shell&#45;&gt;Thompson shell -->
<g id="edge15" class="edge"><title>Bourne shell&#45;&gt;Thompson shell</title>
<path fill="none" stroke="black" d="M396.721,-828.232C403.669,-865.403 420.108,-953.352 428.452,-997.996"/>
<polygon fill="black" stroke="black" points="425.016,-998.663 430.294,-1007.85 431.897,-997.376 425.016,-998.663"/>
</g>
<!-- rc -->
<g id="node19" class="node"><title>rc</title>
<polygon fill="chartreuse" stroke="chartreuse" points="330.5,-756 276.5,-756 276.5,-720 330.5,-720 330.5,-756"/>
<text text-anchor="middle" x="303.5" y="-734.3" font-family="Times New Roman,serif" font-size="14.00">rc</text>
</g>
<!-- rc&#45;&gt;Bourne shell -->
<g id="edge28" class="edge"><title>rc&#45;&gt;Bourne shell</title>
<path fill="none" stroke="black" d="M325.491,-756.104C336.786,-764.889 350.727,-775.732 363.041,-785.309"/>
<polygon fill="black" stroke="black" points="361.21,-788.32 371.253,-791.697 365.508,-782.794 361.21,-788.32"/>
</g>
<!-- KornShell -->
<g id="node20" class="node"><title>KornShell</title>
<polygon fill="chartreuse" stroke="chartreuse" points="589.5,-684 517.5,-684 517.5,-648 589.5,-648 589.5,-684"/>
<text text-anchor="middle" x="553.5" y="-662.3" font-family="Times New Roman,serif" font-size="14.00">KornShell</text>
</g>
<!-- KornShell&#45;&gt;Bourne shell -->
<g id="edge17" class="edge"><title>KornShell&#45;&gt;Bourne shell</title>
<path fill="none" stroke="black" d="M555.137,-684.157C556.044,-703.779 554.451,-735.794 537.5,-756 514.945,-782.888 477.468,-796.138 446.402,-802.666"/>
<polygon fill="black" stroke="black" points="445.726,-799.231 436.567,-804.558 447.048,-806.105 445.726,-799.231"/>
</g>
<!-- ksh88 -->
<g id="node21" class="node"><title>ksh88</title>
<polygon fill="chartreuse" stroke="chartreuse" points="526.5,-612 472.5,-612 472.5,-576 526.5,-576 526.5,-612"/>
<text text-anchor="middle" x="499.5" y="-590.3" font-family="Times New Roman,serif" font-size="14.00">ksh88</text>
</g>
<!-- ksh88&#45;&gt;KornShell -->
<g id="edge22" class="edge"><title>ksh88&#45;&gt;KornShell</title>
<path fill="none" stroke="black" d="M512.695,-612.104C519.081,-620.383 526.876,-630.488 533.936,-639.64"/>
<polygon fill="black" stroke="black" points="531.272,-641.917 540.152,-647.697 536.815,-637.641 531.272,-641.917"/>
</g>
<!-- ksh93 -->
<g id="node22" class="node"><title>ksh93</title>
<polygon fill="chartreuse" stroke="chartreuse" points="581.5,-468 527.5,-468 527.5,-432 581.5,-432 581.5,-468"/>
<text text-anchor="middle" x="554.5" y="-446.3" font-family="Times New Roman,serif" font-size="14.00">ksh93</text>
</g>
<!-- ksh93&#45;&gt;KornShell -->
<g id="edge23" class="edge"><title>ksh93&#45;&gt;KornShell</title>
<path fill="none" stroke="black" d="M554.419,-468.232C554.246,-505.324 553.837,-592.981 553.628,-637.712"/>
<polygon fill="black" stroke="black" points="550.127,-637.833 553.58,-647.849 557.127,-637.866 550.127,-637.833"/>
</g>
<!-- C shell -->
<g id="node23" class="node"><title>C shell</title>
<polygon fill="plum" stroke="plum" points="597,-900 542,-900 542,-864 597,-864 597,-900"/>
<text text-anchor="middle" x="569.5" y="-878.3" font-family="Times New Roman,serif" font-size="14.00">C shell</text>
</g>
<!-- C shell&#45;&gt;Thompson shell -->
<g id="edge37" class="edge"><title>C shell&#45;&gt;Thompson shell</title>
<path fill="none" stroke="grey" stroke-dasharray="5,2" d="M553.037,-900.189C529.11,-925.172 484.597,-971.649 457.159,-1000.3"/>
<polygon fill="grey" stroke="grey" points="454.294,-998.229 449.905,-1007.87 459.349,-1003.07 454.294,-998.229"/>
</g>
<!-- Forsyth shell -->
<g id="node24" class="node"><title>Forsyth shell</title>
<polygon fill="plum" stroke="plum" points="528,-756 439,-756 439,-720 528,-720 528,-756"/>
<text text-anchor="middle" x="483.5" y="-734.3" font-family="Times New Roman,serif" font-size="14.00">Forsyth shell</text>
</g>
<!-- Forsyth shell&#45;&gt;Bourne shell -->
<g id="edge34" class="edge"><title>Forsyth shell&#45;&gt;Bourne shell</title>
<path fill="none" stroke="grey" stroke-dasharray="5,2" d="M461.509,-756.104C450.214,-764.889 436.273,-775.732 423.959,-785.309"/>
<polygon fill="grey" stroke="grey" points="421.492,-782.794 415.747,-791.697 425.79,-788.32 421.492,-782.794"/>
</g>
<!-- BRL shell -->
<g id="node25" class="node"><title>BRL shell</title>
<polygon fill="plum" stroke="plum" points="420.5,-756 348.5,-756 348.5,-720 420.5,-720 420.5,-756"/>
<text text-anchor="middle" x="384.5" y="-734.3" font-family="Times New Roman,serif" font-size="14.00">BRL shell</text>
</g>
<!-- tcsh -->
<g id="node26" class="node"><title>tcsh</title>
<polygon fill="plum" stroke="plum" points="661.5,-684 607.5,-684 607.5,-648 661.5,-648 661.5,-684"/>
<text text-anchor="middle" x="634.5" y="-662.3" font-family="Times New Roman,serif" font-size="14.00">tcsh</text>
</g>
<!-- tcsh&#45;&gt;C shell -->
<g id="edge29" class="edge"><title>tcsh&#45;&gt;C shell</title>
<path fill="none" stroke="black" d="M629.266,-684.232C617.952,-721.481 591.15,-809.723 577.617,-854.278"/>
<polygon fill="black" stroke="black" points="574.267,-853.264 574.709,-863.849 580.965,-855.298 574.267,-853.264"/>
</g>
<!-- Almquist shell -->
<g id="node27" class="node"><title>Almquist shell</title>
<polygon fill="plum" stroke="plum" points="203,-612 108,-612 108,-576 203,-576 203,-612"/>
<text text-anchor="middle" x="155.5" y="-590.3" font-family="Times New Roman,serif" font-size="14.00">Almquist shell</text>
</g>
<!-- Almquist shell&#45;&gt;Bourne shell -->
<g id="edge36" class="edge"><title>Almquist shell&#45;&gt;Bourne shell</title>
<path fill="none" stroke="grey" stroke-dasharray="5,2" d="M160.719,-612.189C171.474,-644.816 199.153,-716.023 246.5,-756 273.131,-778.485 310.056,-791.751 340.235,-799.387"/>
<polygon fill="grey" stroke="grey" points="339.647,-802.845 350.187,-801.766 341.275,-796.037 339.647,-802.845"/>
</g>
<!-- ksh93q -->
<g id="node28" class="node"><title>ksh93q</title>
<polygon fill="plum" stroke="plum" points="638,-108 581,-108 581,-72 638,-72 638,-108"/>
<text text-anchor="middle" x="609.5" y="-86.3" font-family="Times New Roman,serif" font-size="14.00">ksh93q</text>
</g>
<!-- ksh93q&#45;&gt;ksh93 -->
<g id="edge24" class="edge"><title>ksh93q&#45;&gt;ksh93</title>
<path fill="none" stroke="black" d="M609.5,-108.049C609.5,-134.708 609.5,-187.885 609.5,-233 609.5,-307 609.5,-307 609.5,-307 609.5,-349.992 587.307,-395.663 571.116,-423.262"/>
<polygon fill="black" stroke="black" points="568.073,-421.53 565.896,-431.899 574.064,-425.151 568.073,-421.53"/>
</g>
<!-- dash -->
<g id="node29" class="node"><title>dash</title>
<polygon fill="plum" stroke="plum" points="159.5,-180 105.5,-180 105.5,-144 159.5,-144 159.5,-180"/>
<text text-anchor="middle" x="132.5" y="-158.3" font-family="Times New Roman,serif" font-size="14.00">dash</text>
</g>
<!-- dash&#45;&gt;Almquist shell -->
<g id="edge20" class="edge"><title>dash&#45;&gt;Almquist shell</title>
<path fill="none" stroke="black" d="M132.5,-180.049C132.5,-206.708 132.5,-259.885 132.5,-305 132.5,-451 132.5,-451 132.5,-451 132.5,-491.304 141.64,-537.224 148.397,-565.663"/>
<polygon fill="black" stroke="black" points="145.067,-566.778 150.846,-575.658 151.865,-565.112 145.067,-566.778"/>
</g>
<!-- pdksh -->
<g id="node30" class="node"><title>pdksh</title>
<polygon fill="plum" stroke="plum" points="454.5,-612 400.5,-612 400.5,-576 454.5,-576 454.5,-612"/>
<text text-anchor="middle" x="427.5" y="-590.3" font-family="Times New Roman,serif" font-size="14.00">pdksh</text>
</g>
<!-- pdksh&#45;&gt;ksh88 -->
<g id="edge31" class="edge"><title>pdksh&#45;&gt;ksh88</title>
<path fill="none" stroke="grey" stroke-dasharray="5,2" d="M454.781,-594C457.238,-594 459.694,-594 462.151,-594"/>
<polygon fill="grey" stroke="grey" points="462.25,-597.5 472.25,-594 462.249,-590.5 462.25,-597.5"/>
</g>
<!-- pdksh&#45;&gt;Forsyth shell -->
<g id="edge27" class="edge"><title>pdksh&#45;&gt;Forsyth shell</title>
<path fill="none" stroke="black" d="M434.279,-612.189C443.921,-636.638 461.681,-681.673 473.024,-710.436"/>
<polygon fill="black" stroke="black" points="469.82,-711.853 476.745,-719.871 476.332,-709.285 469.82,-711.853"/>
</g>
<!-- pdksh&#45;&gt;BRL shell -->
<g id="edge26" class="edge"><title>pdksh&#45;&gt;BRL shell</title>
<path fill="none" stroke="black" d="M422.295,-612.189C414.924,-636.531 401.373,-681.28 392.658,-710.059"/>
<polygon fill="black" stroke="black" points="389.235,-709.286 389.687,-719.871 395.935,-711.315 389.235,-709.286"/>
</g>
<!-- Bash -->
<g id="node31" class="node"><title>Bash</title>
<polygon fill="plum" stroke="plum" points="275.5,-612 221.5,-612 221.5,-576 275.5,-576 275.5,-612"/>
<text text-anchor="middle" x="248.5" y="-590.3" font-family="Times New Roman,serif" font-size="14.00">Bash</text>
</g>
<!-- Bash&#45;&gt;Bourne shell -->
<g id="edge35" class="edge"><title>Bash&#45;&gt;Bourne shell</title>
<path fill="none" stroke="grey" stroke-dasharray="5,2" d="M245.377,-612.06C240.567,-643.847 235.01,-712.819 267.5,-756 284.96,-779.205 314.517,-792.335 340.617,-799.721"/>
<polygon fill="grey" stroke="grey" points="339.858,-803.14 350.418,-802.279 341.626,-796.367 339.858,-803.14"/>
</g>
<!-- es -->
<g id="node32" class="node"><title>es</title>
<polygon fill="plum" stroke="plum" points="330.5,-540 276.5,-540 276.5,-504 330.5,-504 330.5,-540"/>
<text text-anchor="middle" x="303.5" y="-518.3" font-family="Times New Roman,serif" font-size="14.00">es</text>
</g>
<!-- es&#45;&gt;rc -->
<g id="edge38" class="edge"><title>es&#45;&gt;rc</title>
<path fill="none" stroke="grey" stroke-dasharray="5,2" d="M303.5,-540.232C303.5,-577.324 303.5,-664.981 303.5,-709.712"/>
<polygon fill="grey" stroke="grey" points="300,-709.849 303.5,-719.849 307,-709.849 300,-709.849"/>
</g>
<!-- zsh -->
<g id="node33" class="node"><title>zsh</title>
<polygon fill="plum" stroke="plum" points="647.5,-540 593.5,-540 593.5,-504 647.5,-504 647.5,-540"/>
<text text-anchor="middle" x="620.5" y="-518.3" font-family="Times New Roman,serif" font-size="14.00">zsh</text>
</g>
<!-- zsh&#45;&gt;KornShell -->
<g id="edge32" class="edge"><title>zsh&#45;&gt;KornShell</title>
<path fill="none" stroke="grey" stroke-dasharray="5,2" d="M612.39,-540.189C600.804,-564.745 579.419,-610.066 565.856,-638.812"/>
<polygon fill="grey" stroke="grey" points="562.684,-637.334 561.582,-647.871 569.014,-640.321 562.684,-637.334"/>
</g>
<!-- zsh&#45;&gt;tcsh -->
<g id="edge33" class="edge"><title>zsh&#45;&gt;tcsh</title>
<path fill="none" stroke="grey" stroke-dasharray="5,2" d="M622.195,-540.189C624.584,-564.424 628.968,-608.888 631.806,-637.679"/>
<polygon fill="grey" stroke="grey" points="628.347,-638.263 632.811,-647.871 635.313,-637.576 628.347,-638.263"/>
</g>
<!-- dtksh -->
<g id="node34" class="node"><title>dtksh</title>
<polygon fill="plum" stroke="plum" points="526.5,-396 472.5,-396 472.5,-360 526.5,-360 526.5,-396"/>
<text text-anchor="middle" x="499.5" y="-374.3" font-family="Times New Roman,serif" font-size="14.00">dtksh</text>
</g>
<!-- dtksh&#45;&gt;ksh93 -->
<g id="edge21" class="edge"><title>dtksh&#45;&gt;ksh93</title>
<path fill="none" stroke="black" d="M512.939,-396.104C519.443,-404.383 527.383,-414.488 534.574,-423.64"/>
<polygon fill="black" stroke="black" points="531.974,-425.996 540.904,-431.697 537.478,-421.671 531.974,-425.996"/>
</g>
<!-- tksh -->
<g id="node35" class="node"><title>tksh</title>
<polygon fill="plum" stroke="plum" points="581.5,-324 527.5,-324 527.5,-288 581.5,-288 581.5,-324"/>
<text text-anchor="middle" x="554.5" y="-302.3" font-family="Times New Roman,serif" font-size="14.00">tksh</text>
</g>
<!-- tksh&#45;&gt;ksh93 -->
<g id="edge30" class="edge"><title>tksh&#45;&gt;ksh93</title>
<path fill="none" stroke="black" d="M554.5,-324.189C554.5,-348.424 554.5,-392.888 554.5,-421.679"/>
<polygon fill="black" stroke="black" points="551,-421.871 554.5,-431.871 558,-421.872 551,-421.871"/>
</g>
<!-- BusyBox -->
<g id="node36" class="node"><title>BusyBox</title>
<polygon fill="plum" stroke="plum" points="228.5,-252 160.5,-252 160.5,-216 228.5,-216 228.5,-252"/>
<text text-anchor="middle" x="194.5" y="-230.3" font-family="Times New Roman,serif" font-size="14.00">BusyBox</text>
</g>
<!-- BusyBox&#45;&gt;Almquist shell -->
<g id="edge16" class="edge"><title>BusyBox&#45;&gt;Almquist shell</title>
<path fill="none" stroke="black" d="M192.919,-252.032C190.588,-278.668 186.5,-331.814 186.5,-377 186.5,-451 186.5,-451 186.5,-451 186.5,-491.902 174.072,-537.937 164.954,-566.207"/>
<polygon fill="black" stroke="black" points="161.606,-565.183 161.773,-575.776 168.249,-567.39 161.606,-565.183"/>
</g>
<!-- mksh -->
<g id="node37" class="node"><title>mksh</title>
<polygon fill="plum" stroke="plum" points="468.5,-180 414.5,-180 414.5,-144 468.5,-144 468.5,-180"/>
<text text-anchor="middle" x="441.5" y="-158.3" font-family="Times New Roman,serif" font-size="14.00">mksh</text>
</g>
<!-- mksh&#45;&gt;pdksh -->
<g id="edge25" class="edge"><title>mksh&#45;&gt;pdksh</title>
<path fill="none" stroke="black" d="M441.5,-180.049C441.5,-206.708 441.5,-259.885 441.5,-305 441.5,-451 441.5,-451 441.5,-451 441.5,-490.978 435.936,-536.983 431.824,-565.529"/>
<polygon fill="black" stroke="black" points="428.34,-565.16 430.333,-575.566 435.264,-566.189 428.34,-565.16"/>
</g>
<!-- toybox -->
<g id="node38" class="node"><title>toybox</title>
<polygon fill="plum" stroke="plum" points="222.5,-36 166.5,-36 166.5,-0 222.5,-0 222.5,-36"/>
<text text-anchor="middle" x="194.5" y="-14.3" font-family="Times New Roman,serif" font-size="14.00">toybox</text>
</g>
<!-- toybox&#45;&gt;BusyBox -->
<g id="edge39" class="edge"><title>toybox&#45;&gt;BusyBox</title>
<path fill="none" stroke="grey" stroke-dasharray="5,2" d="M194.5,-36.2325C194.5,-73.3243 194.5,-160.981 194.5,-205.712"/>
<polygon fill="grey" stroke="grey" points="191,-205.849 194.5,-215.849 198,-205.849 191,-205.849"/>
</g>
<!-- OpenBSD ksh -->
<g id="node39" class="node"><title>OpenBSD ksh</title>
<polygon fill="plum" stroke="plum" points="413.5,-324 315.5,-324 315.5,-288 413.5,-288 413.5,-324"/>
<text text-anchor="middle" x="364.5" y="-302.3" font-family="Times New Roman,serif" font-size="14.00">OpenBSD ksh</text>
</g>
<!-- OpenBSD ksh&#45;&gt;pdksh -->
<g id="edge18" class="edge"><title>OpenBSD ksh&#45;&gt;pdksh</title>
<path fill="none" stroke="black" d="M368.312,-324.306C378.909,-372.412 408.776,-508.001 421.567,-566.065"/>
<polygon fill="black" stroke="black" points="418.178,-566.953 423.748,-575.966 425.014,-565.447 418.178,-566.953"/>
</g>
</g>
</svg>
