<?xml version="1.0" encoding="UTF-8" standalone="no"?>
<!DOCTYPE svg PUBLIC "-//W3C//DTD SVG 1.1//EN"
 "http://www.w3.org/Graphics/SVG/1.1/DTD/svg11.dtd">
<!-- Generated by graphviz version 2.42.3 (20191010.1750)
 -->
<!-- Title: shells Pages: 1 -->
<svg width="760pt" height="980pt"
 viewBox="0.00 0.00 759.50 980.00" xmlns="http://www.w3.org/2000/svg" xmlns:xlink="http://www.w3.org/1999/xlink">
<g id="graph0" class="graph" transform="scale(1 1) rotate(0) translate(4 976)">
<title>shells</title>
<polygon fill="white" stroke="transparent" points="-4,4 -4,-976 755.5,-976 755.5,4 -4,4"/>
<!-- 1971 -->
<g id="node1" class="node">
<title>1971</title>
<text text-anchor="middle" x="46.5" y="-950.3" font-family="Times,serif" font-size="14.00">1971</text>
</g>
<!-- 1975&#45;1977 -->
<g id="node2" class="node">
<title>1975&#45;1977</title>
<text text-anchor="middle" x="46.5" y="-878.3" font-family="Times,serif" font-size="14.00">1975&#45;1977</text>
</g>
<!-- 1971&#45;&gt;1975&#45;1977 -->
<!-- 1978 -->
<g id="node3" class="node">
<title>1978</title>
<text text-anchor="middle" x="46.5" y="-806.3" font-family="Times,serif" font-size="14.00">1978</text>
</g>
<!-- 1975&#45;1977&#45;&gt;1978 -->
<!-- 1979 -->
<g id="node4" class="node">
<title>1979</title>
<text text-anchor="middle" x="46.5" y="-734.3" font-family="Times,serif" font-size="14.00">1979</text>
</g>
<!-- 1978&#45;&gt;1979 -->
<!-- 1983 -->
<g id="node5" class="node">
<title>1983</title>
<text text-anchor="middle" x="46.5" y="-662.3" font-family="Times,serif" font-size="14.00">1983</text>
</g>
<!-- 1979&#45;&gt;1983 -->
<!-- 1987&#45;1989 -->
<g id="node6" class="node">
<title>1987&#45;1989</title>
<text text-anchor="middle" x="46.5" y="-590.3" font-family="Times,serif" font-size="14.00">1987&#45;1989</text>
</g>
<!-- 1983&#45;&gt;1987&#45;1989 -->
<!-- 1990 -->
<g id="node7" class="node">
<title>1990</title>
<text text-anchor="middle" x="46.5" y="-518.3" font-family="Times,serif" font-size="14.00">1990</text>
</g>
<!-- 1987&#45;1989&#45;&gt;1990 -->
<!-- 1993 -->
<g id="node8" class="node">
<title>1993</title>
<text text-anchor="middle" x="46.5" y="-446.3" font-family="Times,serif" font-size="14.00">1993</text>
</g>
<!-- 1990&#45;&gt;1993 -->
<!-- 1995 -->
<g id="node9" class="node">
<title>1995</title>
<text text-anchor="middle" x="46.5" y="-374.3" font-family="Times,serif" font-size="14.00">1995</text>
</g>
<!-- 1993&#45;&gt;1995 -->
<!-- 1996 -->
<g id="node10" class="node">
<title>1996</title>
<text text-anchor="middle" x="46.5" y="-302.3" font-family="Times,serif" font-size="14.00">1996</text>
</g>
<!-- 1995&#45;&gt;1996 -->
<!-- 1999 -->
<g id="node11" class="node">
<title>1999</title>
<text text-anchor="middle" x="46.5" y="-230.3" font-family="Times,serif" font-size="14.00">1999</text>
</g>
<!-- 1996&#45;&gt;1999 -->
<!-- 2002 -->
<g id="node12" class="node">
<title>2002</title>
<text text-anchor="middle" x="46.5" y="-158.3" font-family="Times,serif" font-size="14.00">2002</text>
</g>
<!-- 1999&#45;&gt;2002 -->
<!-- 2005 -->
<g id="node13" class="node">
<title>2005</title>
<text text-anchor="middle" x="46.5" y="-86.3" font-family="Times,serif" font-size="14.00">2005</text>
</g>
<!-- 2002&#45;&gt;2005 -->
<!-- 2006 -->
<g id="node14" class="node">
<title>2006</title>
<text text-anchor="middle" x="46.5" y="-14.3" font-family="Times,serif" font-size="14.00">2006</text>
</g>
<!-- 2005&#45;&gt;2006 -->
<!-- Thompson shell -->
<g id="node15" class="node">
<title>Thompson shell</title>
<polygon fill="#355269" stroke="#355269" points="588.5,-972 460.5,-972 460.5,-936 588.5,-936 588.5,-972"/>
<text text-anchor="middle" x="524.5" y="-950.3" font-family="Times,serif" font-size="14.00" fill="white">Thompson shell</text>
</g>
<!-- PWB shell -->
<g id="node16" class="node">
<title>PWB shell</title>
<polygon fill="#355269" stroke="#355269" points="496,-900 407,-900 407,-864 496,-864 496,-900"/>
<text text-anchor="middle" x="451.5" y="-878.3" font-family="Times,serif" font-size="14.00" fill="white">PWB shell</text>
</g>
<!-- PWB shell&#45;&gt;Thompson shell -->
<g id="edge18" class="edge">
<title>PWB shell&#45;&gt;Thompson shell</title>
<path fill="none" stroke="black" d="M469.34,-900.1C478.32,-908.72 489.37,-919.32 499.22,-928.76"/>
<polygon fill="black" stroke="black" points="496.81,-931.3 506.46,-935.7 501.66,-926.25 496.81,-931.3"/>
</g>
<!-- Bourne shell -->
<g id="node17" class="node">
<title>Bourne shell</title>
<polygon fill="#355269" stroke="#355269" points="543,-828 436,-828 436,-792 543,-792 543,-828"/>
<text text-anchor="middle" x="489.5" y="-806.3" font-family="Times,serif" font-size="14.00" fill="white">Bourne shell</text>
</g>
<!-- Bourne shell&#45;&gt;Thompson shell -->
<g id="edge14" class="edge">
<title>Bourne shell&#45;&gt;Thompson shell</title>
<path fill="none" stroke="black" d="M494.6,-828.12C497.62,-838.47 501.44,-851.95 504.5,-864 509.72,-884.59 514.97,-908.04 518.77,-925.7"/>
<polygon fill="black" stroke="black" points="515.43,-926.82 520.94,-935.87 522.28,-925.36 515.43,-926.82"/>
</g>
<!-- rc -->
<g id="node18" class="node">
<title>rc</title>
<polygon fill="#355269" stroke="#355269" points="360.5,-540 306.5,-540 306.5,-504 360.5,-504 360.5,-540"/>
<text text-anchor="middle" x="333.5" y="-518.3" font-family="Times,serif" font-size="14.00" fill="white">rc</text>
</g>
<!-- rc&#45;&gt;Bourne shell -->
<g id="edge27" class="edge">
<title>rc&#45;&gt;Bourne shell</title>
<path fill="none" stroke="black" d="M335.11,-540.01C337.3,-558.39 342.2,-588.23 352.5,-612 381.95,-679.94 436.55,-748.51 467.18,-784.08"/>
<polygon fill="black" stroke="black" points="464.85,-786.74 474.06,-791.98 470.13,-782.14 464.85,-786.74"/>
</g>
<!-- KornShell -->
<g id="node19" class="node">
<title>KornShell</title>
<polygon fill="#355269" stroke="#355269" points="655.5,-684 569.5,-684 569.5,-648 655.5,-648 655.5,-684"/>
<text text-anchor="middle" x="612.5" y="-662.3" font-family="Times,serif" font-size="14.00" fill="white">KornShell</text>
</g>
<!-- KornShell&#45;&gt;Bourne shell -->
<g id="edge16" class="edge">
<title>KornShell&#45;&gt;Bourne shell</title>
<path fill="none" stroke="black" d="M599.39,-684.09C585.27,-702.27 561.94,-731.71 540.5,-756 532.13,-765.48 522.61,-775.55 514.08,-784.34"/>
<polygon fill="black" stroke="black" points="511.38,-782.1 506.89,-791.69 516.38,-786.99 511.38,-782.1"/>
</g>
<!-- ksh88 -->
<g id="node20" class="node">
<title>ksh88</title>
<polygon fill="#355269" stroke="#355269" points="631,-612 572,-612 572,-576 631,-576 631,-612"/>
<text text-anchor="middle" x="601.5" y="-590.3" font-family="Times,serif" font-size="14.00" fill="white">ksh88</text>
</g>
<!-- ksh88&#45;&gt;KornShell -->
<g id="edge21" class="edge">
<title>ksh88&#45;&gt;KornShell</title>
<path fill="none" stroke="black" d="M604.19,-612.1C605.4,-619.79 606.85,-629.05 608.2,-637.67"/>
<polygon fill="black" stroke="black" points="604.77,-638.36 609.78,-647.7 611.69,-637.27 604.77,-638.36"/>
</g>
<!-- ksh93 -->
<g id="node21" class="node">
<title>ksh93</title>
<polygon fill="#355269" stroke="#355269" points="689,-468 630,-468 630,-432 689,-432 689,-468"/>
<text text-anchor="middle" x="659.5" y="-446.3" font-family="Times,serif" font-size="14.00" fill="white">ksh93</text>
</g>
<!-- ksh93&#45;&gt;KornShell -->
<g id="edge22" class="edge">
<title>ksh93&#45;&gt;KornShell</title>
<path fill="none" stroke="black" d="M659.52,-468.35C659.1,-498.33 656.23,-561.48 640.5,-612 637.67,-621.1 633.28,-630.46 628.81,-638.75"/>
<polygon fill="black" stroke="black" points="625.7,-637.14 623.81,-647.56 631.79,-640.59 625.7,-637.14"/>
</g>
<!-- C shell -->
<g id="node22" class="node">
<title>C shell</title>
<polygon fill="#a87a54" stroke="#a87a54" points="664,-828 599,-828 599,-792 664,-792 664,-828"/>
<text text-anchor="middle" x="631.5" y="-806.3" font-family="Times,serif" font-size="14.00" fill="white">C shell</text>
</g>
<!-- C shell&#45;&gt;Thompson shell -->
<g id="edge36" class="edge">
<title>C shell&#45;&gt;Thompson shell</title>
<path fill="none" stroke="grey" stroke-dasharray="5,2" d="M618.55,-828.19C599.88,-852.96 565.3,-898.86 543.67,-927.56"/>
<polygon fill="grey" stroke="grey" points="540.63,-925.78 537.41,-935.87 546.22,-929.99 540.63,-925.78"/>
</g>
<!-- BRL shell -->
<g id="node23" class="node">
<title>BRL shell</title>
<polygon fill="#a87a54" stroke="#a87a54" points="305,-612 220,-612 220,-576 305,-576 305,-612"/>
<text text-anchor="middle" x="262.5" y="-590.3" font-family="Times,serif" font-size="14.00" fill="white">BRL shell</text>
</g>
<!-- Forsyth shell -->
<g id="node24" class="node">
<title>Forsyth shell</title>
<polygon fill="#a87a54" stroke="#a87a54" points="359.5,-828 249.5,-828 249.5,-792 359.5,-792 359.5,-828"/>
<text text-anchor="middle" x="304.5" y="-806.3" font-family="Times,serif" font-size="14.00" fill="white">Forsyth shell</text>
</g>
<!-- Forsyth shell&#45;&gt;Bourne shell -->
<g id="edge33" class="edge">
<title>Forsyth shell&#45;&gt;Bourne shell</title>
<path fill="none" stroke="grey" stroke-dasharray="5,2" d="M359.78,-810C381.75,-810 403.72,-810 425.69,-810"/>
<polygon fill="grey" stroke="grey" points="425.79,-813.5 435.79,-810 425.79,-806.5 425.79,-813.5"/>
</g>
<!-- tcsh -->
<g id="node25" class="node">
<title>tcsh</title>
<polygon fill="#a87a54" stroke="#a87a54" points="750.5,-684 696.5,-684 696.5,-648 750.5,-648 750.5,-684"/>
<text text-anchor="middle" x="723.5" y="-662.3" font-family="Times,serif" font-size="14.00" fill="white">tcsh</text>
</g>
<!-- tcsh&#45;&gt;C shell -->
<g id="edge28" class="edge">
<title>tcsh&#45;&gt;C shell</title>
<path fill="none" stroke="black" d="M712.36,-684.19C696.38,-708.85 666.84,-754.46 648.22,-783.19"/>
<polygon fill="black" stroke="black" points="645.1,-781.58 642.6,-791.87 650.97,-785.38 645.1,-781.58"/>
</g>
<!-- Almquist shell -->
<g id="node26" class="node">
<title>Almquist shell</title>
<polygon fill="#a87a54" stroke="#a87a54" points="481,-612 362,-612 362,-576 481,-576 481,-612"/>
<text text-anchor="middle" x="421.5" y="-590.3" font-family="Times,serif" font-size="14.00" fill="white">Almquist shell</text>
</g>
<!-- Almquist shell&#45;&gt;Bourne shell -->
<g id="edge35" class="edge">
<title>Almquist shell&#45;&gt;Bourne shell</title>
<path fill="none" stroke="grey" stroke-dasharray="5,2" d="M426.98,-612.23C438.81,-649.48 466.85,-737.72 481.01,-782.28"/>
<polygon fill="grey" stroke="grey" points="477.69,-783.38 484.05,-791.85 484.36,-781.26 477.69,-783.38"/>
</g>
<!-- ksh93q -->
<g id="node27" class="node">
<title>ksh93q</title>
<polygon fill="#a87a54" stroke="#a87a54" points="748.5,-108 680.5,-108 680.5,-72 748.5,-72 748.5,-108"/>
<text text-anchor="middle" x="714.5" y="-86.3" font-family="Times,serif" font-size="14.00" fill="white">ksh93q</text>
</g>
<!-- ksh93q&#45;&gt;ksh93 -->
<g id="edge23" class="edge">
<title>ksh93q&#45;&gt;ksh93</title>
<path fill="none" stroke="black" d="M714.5,-108.05C714.5,-134.71 714.5,-187.89 714.5,-233 714.5,-307 714.5,-307 714.5,-307 714.5,-349.99 692.31,-395.66 676.12,-423.26"/>
<polygon fill="black" stroke="black" points="673.07,-421.53 670.9,-431.9 679.06,-425.15 673.07,-421.53"/>
</g>
<!-- dash -->
<g id="node28" class="node">
<title>dash</title>
<polygon fill="#a87a54" stroke="#a87a54" points="484.5,-180 430.5,-180 430.5,-144 484.5,-144 484.5,-180"/>
<text text-anchor="middle" x="457.5" y="-158.3" font-family="Times,serif" font-size="14.00" fill="white">dash</text>
</g>
<!-- dash&#45;&gt;Almquist shell -->
<g id="edge19" class="edge">
<title>dash&#45;&gt;Almquist shell</title>
<path fill="none" stroke="black" d="M457.5,-180.05C457.5,-206.71 457.5,-259.89 457.5,-305 457.5,-451 457.5,-451 457.5,-451 457.5,-492.22 443.07,-538.17 432.48,-566.34"/>
<polygon fill="black" stroke="black" points="429.14,-565.28 428.79,-575.87 435.66,-567.81 429.14,-565.28"/>
</g>
<!-- pdksh -->
<g id="node29" class="node">
<title>pdksh</title>
<polygon fill="#a87a54" stroke="#a87a54" points="202,-612 143,-612 143,-576 202,-576 202,-612"/>
<text text-anchor="middle" x="172.5" y="-590.3" font-family="Times,serif" font-size="14.00" fill="white">pdksh</text>
</g>
<!-- pdksh&#45;&gt;ksh88 -->
<g id="edge30" class="edge">
<title>pdksh&#45;&gt;ksh88</title>
<path fill="none" stroke="grey" stroke-dasharray="5,2" d="M190.48,-612.23C198.61,-619.21 208.79,-626.37 219.5,-630 289.79,-653.83 483.09,-653.47 553.5,-630 561.14,-627.45 568.55,-623.16 575.16,-618.4"/>
<polygon fill="grey" stroke="grey" points="577.34,-621.14 583.08,-612.24 573.04,-615.62 577.34,-621.14"/>
</g>
<!-- pdksh&#45;&gt;BRL shell -->
<g id="edge25" class="edge">
<title>pdksh&#45;&gt;BRL shell</title>
<path fill="none" stroke="black" d="M202.03,-594C204.65,-594 207.27,-594 209.89,-594"/>
<polygon fill="black" stroke="black" points="209.98,-597.5 219.98,-594 209.98,-590.5 209.98,-597.5"/>
</g>
<!-- pdksh&#45;&gt;Forsyth shell -->
<g id="edge26" class="edge">
<title>pdksh&#45;&gt;Forsyth shell</title>
<path fill="none" stroke="black" d="M183.13,-612.23C206.25,-649.72 261.22,-738.84 288.53,-783.12"/>
<polygon fill="black" stroke="black" points="285.69,-785.18 293.92,-791.85 291.65,-781.5 285.69,-785.18"/>
</g>
<!-- Bash -->
<g id="node30" class="node">
<title>Bash</title>
<polygon fill="#a87a54" stroke="#a87a54" points="553.5,-612 499.5,-612 499.5,-576 553.5,-576 553.5,-612"/>
<text text-anchor="middle" x="526.5" y="-590.3" font-family="Times,serif" font-size="14.00" fill="white">Bash</text>
</g>
<!-- Bash&#45;&gt;Bourne shell -->
<g id="edge34" class="edge">
<title>Bash&#45;&gt;Bourne shell</title>
<path fill="none" stroke="grey" stroke-dasharray="5,2" d="M523.52,-612.23C517.11,-649.32 501.95,-736.98 494.22,-781.71"/>
<polygon fill="grey" stroke="grey" points="490.72,-781.4 492.47,-791.85 497.62,-782.59 490.72,-781.4"/>
</g>
<!-- es -->
<g id="node31" class="node">
<title>es</title>
<polygon fill="#a87a54" stroke="#a87a54" points="360.5,-468 306.5,-468 306.5,-432 360.5,-432 360.5,-468"/>
<text text-anchor="middle" x="333.5" y="-446.3" font-family="Times,serif" font-size="14.00" fill="white">es</text>
</g>
<!-- es&#45;&gt;rc -->
<g id="edge37" class="edge">
<title>es&#45;&gt;rc</title>
<path fill="none" stroke="grey" stroke-dasharray="5,2" d="M333.5,-468.1C333.5,-475.79 333.5,-485.05 333.5,-493.67"/>
<polygon fill="grey" stroke="grey" points="330,-493.7 333.5,-503.7 337,-493.7 330,-493.7"/>
</g>
<!-- zsh -->
<g id="node32" class="node">
<title>zsh</title>
<polygon fill="#a87a54" stroke="#a87a54" points="751.5,-540 697.5,-540 697.5,-504 751.5,-504 751.5,-540"/>
<text text-anchor="middle" x="724.5" y="-518.3" font-family="Times,serif" font-size="14.00" fill="white">zsh</text>
</g>
<!-- zsh&#45;&gt;KornShell -->
<g id="edge31" class="edge">
<title>zsh&#45;&gt;KornShell</title>
<path fill="none" stroke="grey" stroke-dasharray="5,2" d="M716.82,-540.14C707.95,-558.89 692.16,-589.3 673.5,-612 664.78,-622.6 653.82,-632.85 643.6,-641.45"/>
<polygon fill="grey" stroke="grey" points="641.14,-638.94 635.62,-647.98 645.58,-644.36 641.14,-638.94"/>
</g>
<!-- zsh&#45;&gt;tcsh -->
<g id="edge32" class="edge">
<title>zsh&#45;&gt;tcsh</title>
<path fill="none" stroke="grey" stroke-dasharray="5,2" d="M724.38,-540.19C724.21,-564.42 723.9,-608.89 723.69,-637.68"/>
<polygon fill="grey" stroke="grey" points="720.19,-637.85 723.62,-647.87 727.19,-637.9 720.19,-637.85"/>
</g>
<!-- dtksh -->
<g id="node33" class="node">
<title>dtksh</title>
<polygon fill="#a87a54" stroke="#a87a54" points="631.5,-396 575.5,-396 575.5,-360 631.5,-360 631.5,-396"/>
<text text-anchor="middle" x="603.5" y="-374.3" font-family="Times,serif" font-size="14.00" fill="white">dtksh</text>
</g>
<!-- dtksh&#45;&gt;ksh93 -->
<g id="edge20" class="edge">
<title>dtksh&#45;&gt;ksh93</title>
<path fill="none" stroke="black" d="M617.18,-396.1C623.81,-404.38 631.89,-414.49 639.21,-423.64"/>
<polygon fill="black" stroke="black" points="636.68,-426.07 645.66,-431.7 642.14,-421.7 636.68,-426.07"/>
</g>
<!-- tksh -->
<g id="node34" class="node">
<title>tksh</title>
<polygon fill="#a87a54" stroke="#a87a54" points="686.5,-324 632.5,-324 632.5,-288 686.5,-288 686.5,-324"/>
<text text-anchor="middle" x="659.5" y="-302.3" font-family="Times,serif" font-size="14.00" fill="white">tksh</text>
</g>
<!-- tksh&#45;&gt;ksh93 -->
<g id="edge29" class="edge">
<title>tksh&#45;&gt;ksh93</title>
<path fill="none" stroke="black" d="M659.5,-324.19C659.5,-348.42 659.5,-392.89 659.5,-421.68"/>
<polygon fill="black" stroke="black" points="656,-421.87 659.5,-431.87 663,-421.87 656,-421.87"/>
</g>
<!-- BusyBox -->
<g id="node35" class="node">
<title>BusyBox</title>
<polygon fill="#a87a54" stroke="#a87a54" points="429,-252 350,-252 350,-216 429,-216 429,-252"/>
<text text-anchor="middle" x="389.5" y="-230.3" font-family="Times,serif" font-size="14.00" fill="white">BusyBox</text>
</g>
<!-- BusyBox&#45;&gt;Almquist shell -->
<g id="edge15" class="edge">
<title>BusyBox&#45;&gt;Almquist shell</title>
<path fill="none" stroke="black" d="M392.54,-252.43C396.92,-279.14 404.5,-331.88 404.5,-377 404.5,-451 404.5,-451 404.5,-451 404.5,-491.07 411.26,-537.05 416.25,-565.57"/>
<polygon fill="black" stroke="black" points="412.84,-566.37 418.06,-575.59 419.73,-565.13 412.84,-566.37"/>
</g>
<!-- mksh -->
<g id="node36" class="node">
<title>mksh</title>
<polygon fill="#a87a54" stroke="#a87a54" points="173,-180 118,-180 118,-144 173,-144 173,-180"/>
<text text-anchor="middle" x="145.5" y="-158.3" font-family="Times,serif" font-size="14.00" fill="white">mksh</text>
</g>
<!-- mksh&#45;&gt;pdksh -->
<g id="edge24" class="edge">
<title>mksh&#45;&gt;pdksh</title>
<path fill="none" stroke="black" d="M145.5,-180.05C145.5,-206.71 145.5,-259.89 145.5,-305 145.5,-451 145.5,-451 145.5,-451 145.5,-491.5 156.23,-537.37 164.16,-565.74"/>
<polygon fill="black" stroke="black" points="160.9,-567.07 167.04,-575.71 167.63,-565.13 160.9,-567.07"/>
</g>
<!-- toybox -->
<g id="node37" class="node">
<title>toybox</title>
<polygon fill="#a87a54" stroke="#a87a54" points="422,-36 357,-36 357,0 422,0 422,-36"/>
<text text-anchor="middle" x="389.5" y="-14.3" font-family="Times,serif" font-size="14.00" fill="white">toybox</text>
</g>
<!-- toybox&#45;&gt;BusyBox -->
<g id="edge38" class="edge">
<title>toybox&#45;&gt;BusyBox</title>
<path fill="none" stroke="grey" stroke-dasharray="5,2" d="M389.5,-36.23C389.5,-73.32 389.5,-160.98 389.5,-205.71"/>
<polygon fill="grey" stroke="grey" points="386,-205.85 389.5,-215.85 393,-205.85 386,-205.85"/>
</g>
<!-- OpenBSD ksh -->
<g id="node38" class="node">
<title>OpenBSD ksh</title>
<polygon fill="#a87a54" stroke="#a87a54" points="289,-324 174,-324 174,-288 289,-288 289,-324"/>
<text text-anchor="middle" x="231.5" y="-302.3" font-family="Times,serif" font-size="14.00" fill="white">OpenBSD ksh</text>
</g>
<!-- OpenBSD ksh&#45;&gt;pdksh -->
<g id="edge17" class="edge">
<title>OpenBSD ksh&#45;&gt;pdksh</title>
<path fill="none" stroke="black" d="M227.93,-324.31C218.01,-372.41 190.03,-508 178.06,-566.06"/>
<polygon fill="black" stroke="black" points="174.61,-565.46 176.01,-575.97 181.46,-566.88 174.61,-565.46"/>
</g>
</g>
</svg>
