<?xml version="1.0" encoding="UTF-8" standalone="no"?>
<!DOCTYPE svg PUBLIC "-//W3C//DTD SVG 1.1//EN"
 "http://www.w3.org/Graphics/SVG/1.1/DTD/svg11.dtd">
<!-- Generated by graphviz version 2.43.0 (0)
 -->
<!-- Title: shells Pages: 1 -->
<svg width="780pt" height="980pt"
 viewBox="0.00 0.00 779.50 980.00" xmlns="http://www.w3.org/2000/svg" xmlns:xlink="http://www.w3.org/1999/xlink">
<g id="graph0" class="graph" transform="scale(1 1) rotate(0) translate(4 976)">
<title>shells</title>
<polygon fill="white" stroke="transparent" points="-4,4 -4,-976 775.5,-976 775.5,4 -4,4"/>
<!-- 1971 -->
<g id="node1" class="node">
<title>1971</title>
<text text-anchor="middle" x="46.5" y="-950.3" font-family="Times,serif" font-size="14.00">1971</text>
</g>
<!-- 1975&#45;1977 -->
<g id="node2" class="node">
<title>1975&#45;1977</title>
<text text-anchor="middle" x="46.5" y="-878.3" font-family="Times,serif" font-size="14.00">1975&#45;1977</text>
</g>
<!-- 1971&#45;&gt;1975&#45;1977 -->
<!-- 1978 -->
<g id="node3" class="node">
<title>1978</title>
<text text-anchor="middle" x="46.5" y="-806.3" font-family="Times,serif" font-size="14.00">1978</text>
</g>
<!-- 1975&#45;1977&#45;&gt;1978 -->
<!-- 1979 -->
<g id="node4" class="node">
<title>1979</title>
<text text-anchor="middle" x="46.5" y="-734.3" font-family="Times,serif" font-size="14.00">1979</text>
</g>
<!-- 1978&#45;&gt;1979 -->
<!-- 1983 -->
<g id="node5" class="node">
<title>1983</title>
<text text-anchor="middle" x="46.5" y="-662.3" font-family="Times,serif" font-size="14.00">1983</text>
</g>
<!-- 1979&#45;&gt;1983 -->
<!-- 1987&#45;1989 -->
<g id="node6" class="node">
<title>1987&#45;1989</title>
<text text-anchor="middle" x="46.5" y="-590.3" font-family="Times,serif" font-size="14.00">1987&#45;1989</text>
</g>
<!-- 1983&#45;&gt;1987&#45;1989 -->
<!-- 1990 -->
<g id="node7" class="node">
<title>1990</title>
<text text-anchor="middle" x="46.5" y="-518.3" font-family="Times,serif" font-size="14.00">1990</text>
</g>
<!-- 1987&#45;1989&#45;&gt;1990 -->
<!-- 1993 -->
<g id="node8" class="node">
<title>1993</title>
<text text-anchor="middle" x="46.5" y="-446.3" font-family="Times,serif" font-size="14.00">1993</text>
</g>
<!-- 1990&#45;&gt;1993 -->
<!-- 1995 -->
<g id="node9" class="node">
<title>1995</title>
<text text-anchor="middle" x="46.5" y="-374.3" font-family="Times,serif" font-size="14.00">1995</text>
</g>
<!-- 1993&#45;&gt;1995 -->
<!-- 1996 -->
<g id="node10" class="node">
<title>1996</title>
<text text-anchor="middle" x="46.5" y="-302.3" font-family="Times,serif" font-size="14.00">1996</text>
</g>
<!-- 1995&#45;&gt;1996 -->
<!-- 1999 -->
<g id="node11" class="node">
<title>1999</title>
<text text-anchor="middle" x="46.5" y="-230.3" font-family="Times,serif" font-size="14.00">1999</text>
</g>
<!-- 1996&#45;&gt;1999 -->
<!-- 2002 -->
<g id="node12" class="node">
<title>2002</title>
<text text-anchor="middle" x="46.5" y="-158.3" font-family="Times,serif" font-size="14.00">2002</text>
</g>
<!-- 1999&#45;&gt;2002 -->
<!-- 2005 -->
<g id="node13" class="node">
<title>2005</title>
<text text-anchor="middle" x="46.5" y="-86.3" font-family="Times,serif" font-size="14.00">2005</text>
</g>
<!-- 2002&#45;&gt;2005 -->
<!-- 2006 -->
<g id="node14" class="node">
<title>2006</title>
<text text-anchor="middle" x="46.5" y="-14.3" font-family="Times,serif" font-size="14.00">2006</text>
</g>
<!-- 2005&#45;&gt;2006 -->
<!-- Thompson shell -->
<g id="node15" class="node">
<title>Thompson shell</title>
<polygon fill="chartreuse" stroke="chartreuse" points="568.5,-972 440.5,-972 440.5,-936 568.5,-936 568.5,-972"/>
<text text-anchor="middle" x="504.5" y="-950.3" font-family="Times,serif" font-size="14.00">Thompson shell</text>
</g>
<!-- PWB shell -->
<g id="node16" class="node">
<title>PWB shell</title>
<polygon fill="chartreuse" stroke="chartreuse" points="476,-900 387,-900 387,-864 476,-864 476,-900"/>
<text text-anchor="middle" x="431.5" y="-878.3" font-family="Times,serif" font-size="14.00">PWB shell</text>
</g>
<!-- PWB shell&#45;&gt;Thompson shell -->
<g id="edge18" class="edge">
<title>PWB shell&#45;&gt;Thompson shell</title>
<path fill="none" stroke="black" d="M449.34,-900.1C458.32,-908.72 469.37,-919.32 479.22,-928.76"/>
<polygon fill="black" stroke="black" points="476.81,-931.3 486.46,-935.7 481.66,-926.25 476.81,-931.3"/>
</g>
<!-- Bourne shell -->
<g id="node17" class="node">
<title>Bourne shell</title>
<polygon fill="chartreuse" stroke="chartreuse" points="539,-828 432,-828 432,-792 539,-792 539,-828"/>
<text text-anchor="middle" x="485.5" y="-806.3" font-family="Times,serif" font-size="14.00">Bourne shell</text>
</g>
<!-- Bourne shell&#45;&gt;Thompson shell -->
<g id="edge14" class="edge">
<title>Bourne shell&#45;&gt;Thompson shell</title>
<path fill="none" stroke="black" d="M487.8,-828.19C491.04,-852.42 496.99,-896.89 500.84,-925.68"/>
<polygon fill="black" stroke="black" points="497.41,-926.42 502.21,-935.87 504.35,-925.5 497.41,-926.42"/>
</g>
<!-- rc -->
<g id="node18" class="node">
<title>rc</title>
<polygon fill="chartreuse" stroke="chartreuse" points="380.5,-540 326.5,-540 326.5,-504 380.5,-504 380.5,-540"/>
<text text-anchor="middle" x="353.5" y="-518.3" font-family="Times,serif" font-size="14.00">rc</text>
</g>
<!-- rc&#45;&gt;Bourne shell -->
<g id="edge27" class="edge">
<title>rc&#45;&gt;Bourne shell</title>
<path fill="none" stroke="black" d="M355.56,-540.18C358.11,-558.44 363.29,-587.95 372.5,-612 397.58,-677.52 442.38,-747.12 467.38,-783.49"/>
<polygon fill="black" stroke="black" points="464.7,-785.77 473.28,-791.99 470.45,-781.78 464.7,-785.77"/>
</g>
<!-- KornShell -->
<g id="node19" class="node">
<title>KornShell</title>
<polygon fill="chartreuse" stroke="chartreuse" points="675.5,-684 589.5,-684 589.5,-648 675.5,-648 675.5,-684"/>
<text text-anchor="middle" x="632.5" y="-662.3" font-family="Times,serif" font-size="14.00">KornShell</text>
</g>
<!-- KornShell&#45;&gt;Bourne shell -->
<g id="edge16" class="edge">
<title>KornShell&#45;&gt;Bourne shell</title>
<path fill="none" stroke="black" d="M614.71,-684.19C588.73,-709.28 540.32,-756.05 510.69,-784.66"/>
<polygon fill="black" stroke="black" points="507.99,-782.41 503.23,-791.87 512.86,-787.44 507.99,-782.41"/>
</g>
<!-- ksh88 -->
<g id="node20" class="node">
<title>ksh88</title>
<polygon fill="chartreuse" stroke="chartreuse" points="651,-612 592,-612 592,-576 651,-576 651,-612"/>
<text text-anchor="middle" x="621.5" y="-590.3" font-family="Times,serif" font-size="14.00">ksh88</text>
</g>
<!-- ksh88&#45;&gt;KornShell -->
<g id="edge21" class="edge">
<title>ksh88&#45;&gt;KornShell</title>
<path fill="none" stroke="black" d="M624.19,-612.1C625.4,-619.79 626.85,-629.05 628.2,-637.67"/>
<polygon fill="black" stroke="black" points="624.77,-638.36 629.78,-647.7 631.69,-637.27 624.77,-638.36"/>
</g>
<!-- ksh93 -->
<g id="node21" class="node">
<title>ksh93</title>
<polygon fill="chartreuse" stroke="chartreuse" points="709,-468 650,-468 650,-432 709,-432 709,-468"/>
<text text-anchor="middle" x="679.5" y="-446.3" font-family="Times,serif" font-size="14.00">ksh93</text>
</g>
<!-- ksh93&#45;&gt;KornShell -->
<g id="edge22" class="edge">
<title>ksh93&#45;&gt;KornShell</title>
<path fill="none" stroke="black" d="M679.52,-468.35C679.1,-498.33 676.23,-561.48 660.5,-612 657.67,-621.1 653.28,-630.46 648.81,-638.75"/>
<polygon fill="black" stroke="black" points="645.7,-637.14 643.81,-647.56 651.79,-640.59 645.7,-637.14"/>
</g>
<!-- C shell -->
<g id="node22" class="node">
<title>C shell</title>
<polygon fill="plum" stroke="plum" points="627,-828 562,-828 562,-792 627,-792 627,-828"/>
<text text-anchor="middle" x="594.5" y="-806.3" font-family="Times,serif" font-size="14.00">C shell</text>
</g>
<!-- C shell&#45;&gt;Thompson shell -->
<g id="edge36" class="edge">
<title>C shell&#45;&gt;Thompson shell</title>
<path fill="none" stroke="grey" stroke-dasharray="5,2" d="M583.61,-828.19C567.97,-852.85 539.07,-898.46 520.86,-927.19"/>
<polygon fill="grey" stroke="grey" points="517.75,-925.55 515.36,-935.87 523.67,-929.3 517.75,-925.55"/>
</g>
<!-- BRL shell -->
<g id="node23" class="node">
<title>BRL shell</title>
<polygon fill="plum" stroke="plum" points="325,-612 240,-612 240,-576 325,-576 325,-612"/>
<text text-anchor="middle" x="282.5" y="-590.3" font-family="Times,serif" font-size="14.00">BRL shell</text>
</g>
<!-- Forsyth shell -->
<g id="node24" class="node">
<title>Forsyth shell</title>
<polygon fill="plum" stroke="plum" points="347.5,-828 237.5,-828 237.5,-792 347.5,-792 347.5,-828"/>
<text text-anchor="middle" x="292.5" y="-806.3" font-family="Times,serif" font-size="14.00">Forsyth shell</text>
</g>
<!-- Forsyth shell&#45;&gt;Bourne shell -->
<g id="edge33" class="edge">
<title>Forsyth shell&#45;&gt;Bourne shell</title>
<path fill="none" stroke="grey" stroke-dasharray="5,2" d="M347.54,-810C372.24,-810 396.95,-810 421.66,-810"/>
<polygon fill="grey" stroke="grey" points="421.88,-813.5 431.88,-810 421.88,-806.5 421.88,-813.5"/>
</g>
<!-- tcsh -->
<g id="node25" class="node">
<title>tcsh</title>
<polygon fill="plum" stroke="plum" points="770.5,-684 716.5,-684 716.5,-648 770.5,-648 770.5,-684"/>
<text text-anchor="middle" x="743.5" y="-662.3" font-family="Times,serif" font-size="14.00">tcsh</text>
</g>
<!-- tcsh&#45;&gt;C shell -->
<g id="edge28" class="edge">
<title>tcsh&#45;&gt;C shell</title>
<path fill="none" stroke="black" d="M725.46,-684.19C699.14,-709.28 650.06,-756.05 620.04,-784.66"/>
<polygon fill="black" stroke="black" points="617.3,-782.44 612.47,-791.87 622.13,-787.51 617.3,-782.44"/>
</g>
<!-- Almquist shell -->
<g id="node26" class="node">
<title>Almquist shell</title>
<polygon fill="plum" stroke="plum" points="501,-612 382,-612 382,-576 501,-576 501,-612"/>
<text text-anchor="middle" x="441.5" y="-590.3" font-family="Times,serif" font-size="14.00">Almquist shell</text>
</g>
<!-- Almquist shell&#45;&gt;Bourne shell -->
<g id="edge35" class="edge">
<title>Almquist shell&#45;&gt;Bourne shell</title>
<path fill="none" stroke="grey" stroke-dasharray="5,2" d="M445.04,-612.23C452.69,-649.4 470.77,-737.35 479.95,-782"/>
<polygon fill="grey" stroke="grey" points="476.53,-782.76 481.97,-791.85 483.39,-781.35 476.53,-782.76"/>
</g>
<!-- ksh93q -->
<g id="node27" class="node">
<title>ksh93q</title>
<polygon fill="plum" stroke="plum" points="713.5,-108 645.5,-108 645.5,-72 713.5,-72 713.5,-108"/>
<text text-anchor="middle" x="679.5" y="-86.3" font-family="Times,serif" font-size="14.00">ksh93q</text>
</g>
<!-- ksh93q&#45;&gt;ksh93 -->
<g id="edge23" class="edge">
<title>ksh93q&#45;&gt;ksh93</title>
<path fill="none" stroke="black" d="M679.5,-108.05C679.5,-134.71 679.5,-187.89 679.5,-233 679.5,-307 679.5,-307 679.5,-307 679.5,-347 679.5,-393.35 679.5,-421.92"/>
<polygon fill="black" stroke="black" points="676,-421.95 679.5,-431.95 683,-421.95 676,-421.95"/>
</g>
<!-- dash -->
<g id="node28" class="node">
<title>dash</title>
<polygon fill="plum" stroke="plum" points="518.5,-180 464.5,-180 464.5,-144 518.5,-144 518.5,-180"/>
<text text-anchor="middle" x="491.5" y="-158.3" font-family="Times,serif" font-size="14.00">dash</text>
</g>
<!-- dash&#45;&gt;Almquist shell -->
<g id="edge19" class="edge">
<title>dash&#45;&gt;Almquist shell</title>
<path fill="none" stroke="black" d="M491.5,-180.05C491.5,-206.71 491.5,-259.89 491.5,-305 491.5,-451 491.5,-451 491.5,-451 491.5,-493.32 471.5,-538.91 456.8,-566.7"/>
<polygon fill="black" stroke="black" points="453.57,-565.3 451.86,-575.76 459.72,-568.65 453.57,-565.3"/>
</g>
<!-- pdksh -->
<g id="node29" class="node">
<title>pdksh</title>
<polygon fill="plum" stroke="plum" points="222,-612 163,-612 163,-576 222,-576 222,-612"/>
<text text-anchor="middle" x="192.5" y="-590.3" font-family="Times,serif" font-size="14.00">pdksh</text>
</g>
<!-- pdksh&#45;&gt;ksh88 -->
<g id="edge30" class="edge">
<title>pdksh&#45;&gt;ksh88</title>
<path fill="none" stroke="grey" stroke-dasharray="5,2" d="M210.48,-612.23C218.61,-619.21 228.79,-626.37 239.5,-630 309.79,-653.83 503.09,-653.47 573.5,-630 581.14,-627.45 588.55,-623.16 595.16,-618.4"/>
<polygon fill="grey" stroke="grey" points="597.34,-621.14 603.08,-612.24 593.04,-615.62 597.34,-621.14"/>
</g>
<!-- pdksh&#45;&gt;BRL shell -->
<g id="edge25" class="edge">
<title>pdksh&#45;&gt;BRL shell</title>
<path fill="none" stroke="black" d="M222.03,-594C224.65,-594 227.27,-594 229.89,-594"/>
<polygon fill="black" stroke="black" points="229.98,-597.5 239.98,-594 229.98,-590.5 229.98,-597.5"/>
</g>
<!-- pdksh&#45;&gt;Forsyth shell -->
<g id="edge26" class="edge">
<title>pdksh&#45;&gt;Forsyth shell</title>
<path fill="none" stroke="black" d="M200.55,-612.23C218,-649.56 259.37,-738.09 280.14,-782.56"/>
<polygon fill="black" stroke="black" points="277.08,-784.27 284.49,-791.85 283.42,-781.31 277.08,-784.27"/>
</g>
<!-- Bash -->
<g id="node30" class="node">
<title>Bash</title>
<polygon fill="plum" stroke="plum" points="573.5,-612 519.5,-612 519.5,-576 573.5,-576 573.5,-612"/>
<text text-anchor="middle" x="546.5" y="-590.3" font-family="Times,serif" font-size="14.00">Bash</text>
</g>
<!-- Bash&#45;&gt;Bourne shell -->
<g id="edge34" class="edge">
<title>Bash&#45;&gt;Bourne shell</title>
<path fill="none" stroke="grey" stroke-dasharray="5,2" d="M541.59,-612.23C530.99,-649.4 505.92,-737.35 493.2,-782"/>
<polygon fill="grey" stroke="grey" points="489.76,-781.27 490.39,-791.85 496.5,-783.19 489.76,-781.27"/>
</g>
<!-- es -->
<g id="node31" class="node">
<title>es</title>
<polygon fill="plum" stroke="plum" points="380.5,-468 326.5,-468 326.5,-432 380.5,-432 380.5,-468"/>
<text text-anchor="middle" x="353.5" y="-446.3" font-family="Times,serif" font-size="14.00">es</text>
</g>
<!-- es&#45;&gt;rc -->
<g id="edge37" class="edge">
<title>es&#45;&gt;rc</title>
<path fill="none" stroke="grey" stroke-dasharray="5,2" d="M353.5,-468.1C353.5,-475.79 353.5,-485.05 353.5,-493.67"/>
<polygon fill="grey" stroke="grey" points="350,-493.7 353.5,-503.7 357,-493.7 350,-493.7"/>
</g>
<!-- zsh -->
<g id="node32" class="node">
<title>zsh</title>
<polygon fill="plum" stroke="plum" points="771.5,-540 717.5,-540 717.5,-504 771.5,-504 771.5,-540"/>
<text text-anchor="middle" x="744.5" y="-518.3" font-family="Times,serif" font-size="14.00">zsh</text>
</g>
<!-- zsh&#45;&gt;KornShell -->
<g id="edge31" class="edge">
<title>zsh&#45;&gt;KornShell</title>
<path fill="none" stroke="grey" stroke-dasharray="5,2" d="M736.82,-540.14C727.95,-558.89 712.16,-589.3 693.5,-612 684.78,-622.6 673.82,-632.85 663.6,-641.45"/>
<polygon fill="grey" stroke="grey" points="661.14,-638.94 655.62,-647.98 665.58,-644.36 661.14,-638.94"/>
</g>
<!-- zsh&#45;&gt;tcsh -->
<g id="edge32" class="edge">
<title>zsh&#45;&gt;tcsh</title>
<path fill="none" stroke="grey" stroke-dasharray="5,2" d="M744.38,-540.19C744.21,-564.42 743.9,-608.89 743.69,-637.68"/>
<polygon fill="grey" stroke="grey" points="740.19,-637.85 743.62,-647.87 747.19,-637.9 740.19,-637.85"/>
</g>
<!-- dtksh -->
<g id="node33" class="node">
<title>dtksh</title>
<polygon fill="plum" stroke="plum" points="763.5,-396 707.5,-396 707.5,-360 763.5,-360 763.5,-396"/>
<text text-anchor="middle" x="735.5" y="-374.3" font-family="Times,serif" font-size="14.00">dtksh</text>
</g>
<!-- dtksh&#45;&gt;ksh93 -->
<g id="edge20" class="edge">
<title>dtksh&#45;&gt;ksh93</title>
<path fill="none" stroke="black" d="M721.82,-396.1C715.19,-404.38 707.11,-414.49 699.79,-423.64"/>
<polygon fill="black" stroke="black" points="696.86,-421.7 693.34,-431.7 702.32,-426.07 696.86,-421.7"/>
</g>
<!-- tksh -->
<g id="node34" class="node">
<title>tksh</title>
<polygon fill="plum" stroke="plum" points="651.5,-324 597.5,-324 597.5,-288 651.5,-288 651.5,-324"/>
<text text-anchor="middle" x="624.5" y="-302.3" font-family="Times,serif" font-size="14.00">tksh</text>
</g>
<!-- tksh&#45;&gt;ksh93 -->
<g id="edge29" class="edge">
<title>tksh&#45;&gt;ksh93</title>
<path fill="none" stroke="black" d="M631.16,-324.19C640.63,-348.64 658.07,-393.67 669.21,-422.44"/>
<polygon fill="black" stroke="black" points="665.99,-423.81 672.87,-431.87 672.52,-421.28 665.99,-423.81"/>
</g>
<!-- BusyBox -->
<g id="node35" class="node">
<title>BusyBox</title>
<polygon fill="plum" stroke="plum" points="463,-252 384,-252 384,-216 463,-216 463,-252"/>
<text text-anchor="middle" x="423.5" y="-230.3" font-family="Times,serif" font-size="14.00">BusyBox</text>
</g>
<!-- BusyBox&#45;&gt;Almquist shell -->
<g id="edge15" class="edge">
<title>BusyBox&#45;&gt;Almquist shell</title>
<path fill="none" stroke="black" d="M425.28,-252.03C427.9,-278.66 432.5,-331.79 432.5,-377 432.5,-451 432.5,-451 432.5,-451 432.5,-491.08 436.12,-537.41 438.76,-565.95"/>
<polygon fill="black" stroke="black" points="435.29,-566.35 439.72,-575.97 442.25,-565.69 435.29,-566.35"/>
</g>
<!-- mksh -->
<g id="node36" class="node">
<title>mksh</title>
<polygon fill="plum" stroke="plum" points="263,-180 208,-180 208,-144 263,-144 263,-180"/>
<text text-anchor="middle" x="235.5" y="-158.3" font-family="Times,serif" font-size="14.00">mksh</text>
</g>
<!-- mksh&#45;&gt;pdksh -->
<g id="edge24" class="edge">
<title>mksh&#45;&gt;pdksh</title>
<path fill="none" stroke="black" d="M235.5,-180.05C235.5,-206.71 235.5,-259.89 235.5,-305 235.5,-451 235.5,-451 235.5,-451 235.5,-492.71 218.3,-538.46 205.66,-566.46"/>
<polygon fill="black" stroke="black" points="202.45,-565.04 201.41,-575.58 208.8,-567.99 202.45,-565.04"/>
</g>
<!-- toybox -->
<g id="node37" class="node">
<title>toybox</title>
<polygon fill="plum" stroke="plum" points="521,-36 456,-36 456,0 521,0 521,-36"/>
<text text-anchor="middle" x="488.5" y="-14.3" font-family="Times,serif" font-size="14.00">toybox</text>
</g>
<!-- toybox&#45;&gt;Bash -->
<g id="edge39" class="edge">
<title>toybox&#45;&gt;Bash</title>
<path fill="none" stroke="grey" stroke-dasharray="5,2" d="M500.52,-36.01C517.51,-61.77 546.5,-112.8 546.5,-161 546.5,-451 546.5,-451 546.5,-451 546.5,-491 546.5,-537.35 546.5,-565.92"/>
<polygon fill="grey" stroke="grey" points="543,-565.95 546.5,-575.95 550,-565.95 543,-565.95"/>
</g>
<!-- toybox&#45;&gt;BusyBox -->
<g id="edge38" class="edge">
<title>toybox&#45;&gt;BusyBox</title>
<path fill="none" stroke="grey" stroke-dasharray="5,2" d="M483.27,-36.23C471.95,-73.48 445.15,-161.72 431.62,-206.28"/>
<polygon fill="grey" stroke="grey" points="428.27,-205.26 428.71,-215.85 434.96,-207.3 428.27,-205.26"/>
</g>
<!-- OpenBSD ksh -->
<g id="node38" class="node">
<title>OpenBSD ksh</title>
<polygon fill="plum" stroke="plum" points="207,-324 92,-324 92,-288 207,-288 207,-324"/>
<text text-anchor="middle" x="149.5" y="-302.3" font-family="Times,serif" font-size="14.00">OpenBSD ksh</text>
</g>
<!-- OpenBSD ksh&#45;&gt;pdksh -->
<g id="edge17" class="edge">
<title>OpenBSD ksh&#45;&gt;pdksh</title>
<path fill="none" stroke="black" d="M152.1,-324.31C159.33,-372.41 179.72,-508 188.45,-566.06"/>
<polygon fill="black" stroke="black" points="184.99,-566.6 189.94,-575.97 191.91,-565.56 184.99,-566.6"/>
</g>
</g>
</svg>
