<?xml version="1.0" encoding="UTF-8" standalone="no"?>
<!DOCTYPE svg PUBLIC "-//W3C//DTD SVG 1.1//EN"
 "http://www.w3.org/Graphics/SVG/1.1/DTD/svg11.dtd">
<!-- Generated by graphviz version 2.38.0 (20140413.2041)
 -->
<!-- Title: shells Pages: 1 -->
<svg width="695pt" height="980pt"
 viewBox="0.00 0.00 694.50 980.00" xmlns="http://www.w3.org/2000/svg" xmlns:xlink="http://www.w3.org/1999/xlink">
<g id="graph0" class="graph" transform="scale(1 1) rotate(0) translate(4 976)">
<title>shells</title>
<polygon fill="white" stroke="none" points="-4,4 -4,-976 690.5,-976 690.5,4 -4,4"/>
<!-- 1971 -->
<g id="node1" class="node"><title>1971</title>
<text text-anchor="middle" x="37.5" y="-950.3" font-family="Times New Roman,serif" font-size="14.00">1971</text>
</g>
<!-- 1975&#45;1977 -->
<g id="node2" class="node"><title>1975&#45;1977</title>
<text text-anchor="middle" x="37.5" y="-878.3" font-family="Times New Roman,serif" font-size="14.00">1975&#45;1977</text>
</g>
<!-- 1971&#45;&gt;1975&#45;1977 -->
<!-- 1978 -->
<g id="node3" class="node"><title>1978</title>
<text text-anchor="middle" x="37.5" y="-806.3" font-family="Times New Roman,serif" font-size="14.00">1978</text>
</g>
<!-- 1975&#45;1977&#45;&gt;1978 -->
<!-- 1979 -->
<g id="node4" class="node"><title>1979</title>
<text text-anchor="middle" x="37.5" y="-734.3" font-family="Times New Roman,serif" font-size="14.00">1979</text>
</g>
<!-- 1978&#45;&gt;1979 -->
<!-- 1983 -->
<g id="node5" class="node"><title>1983</title>
<text text-anchor="middle" x="37.5" y="-662.3" font-family="Times New Roman,serif" font-size="14.00">1983</text>
</g>
<!-- 1979&#45;&gt;1983 -->
<!-- 1987&#45;1989 -->
<g id="node6" class="node"><title>1987&#45;1989</title>
<text text-anchor="middle" x="37.5" y="-590.3" font-family="Times New Roman,serif" font-size="14.00">1987&#45;1989</text>
</g>
<!-- 1983&#45;&gt;1987&#45;1989 -->
<!-- 1990 -->
<g id="node7" class="node"><title>1990</title>
<text text-anchor="middle" x="37.5" y="-518.3" font-family="Times New Roman,serif" font-size="14.00">1990</text>
</g>
<!-- 1987&#45;1989&#45;&gt;1990 -->
<!-- 1993 -->
<g id="node8" class="node"><title>1993</title>
<text text-anchor="middle" x="37.5" y="-446.3" font-family="Times New Roman,serif" font-size="14.00">1993</text>
</g>
<!-- 1990&#45;&gt;1993 -->
<!-- 1995 -->
<g id="node9" class="node"><title>1995</title>
<text text-anchor="middle" x="37.5" y="-374.3" font-family="Times New Roman,serif" font-size="14.00">1995</text>
</g>
<!-- 1993&#45;&gt;1995 -->
<!-- 1996 -->
<g id="node10" class="node"><title>1996</title>
<text text-anchor="middle" x="37.5" y="-302.3" font-family="Times New Roman,serif" font-size="14.00">1996</text>
</g>
<!-- 1995&#45;&gt;1996 -->
<!-- 1999 -->
<g id="node11" class="node"><title>1999</title>
<text text-anchor="middle" x="37.5" y="-230.3" font-family="Times New Roman,serif" font-size="14.00">1999</text>
</g>
<!-- 1996&#45;&gt;1999 -->
<!-- 2002 -->
<g id="node12" class="node"><title>2002</title>
<text text-anchor="middle" x="37.5" y="-158.3" font-family="Times New Roman,serif" font-size="14.00">2002</text>
</g>
<!-- 1999&#45;&gt;2002 -->
<!-- 2005 -->
<g id="node13" class="node"><title>2005</title>
<text text-anchor="middle" x="37.5" y="-86.3" font-family="Times New Roman,serif" font-size="14.00">2005</text>
</g>
<!-- 2002&#45;&gt;2005 -->
<!-- 2006 -->
<g id="node14" class="node"><title>2006</title>
<text text-anchor="middle" x="37.5" y="-14.3" font-family="Times New Roman,serif" font-size="14.00">2006</text>
</g>
<!-- 2005&#45;&gt;2006 -->
<!-- Thompson shell -->
<g id="node15" class="node"><title>Thompson shell</title>
<polygon fill="chartreuse" stroke="chartreuse" points="522,-972 415,-972 415,-936 522,-936 522,-972"/>
<text text-anchor="middle" x="468.5" y="-950.3" font-family="Times New Roman,serif" font-size="14.00">Thompson shell</text>
</g>
<!-- PWB shell -->
<g id="node16" class="node"><title>PWB shell</title>
<polygon fill="chartreuse" stroke="chartreuse" points="440.5,-900 364.5,-900 364.5,-864 440.5,-864 440.5,-900"/>
<text text-anchor="middle" x="402.5" y="-878.3" font-family="Times New Roman,serif" font-size="14.00">PWB shell</text>
</g>
<!-- PWB shell&#45;&gt;Thompson shell -->
<g id="edge18" class="edge"><title>PWB shell&#45;&gt;Thompson shell</title>
<path fill="none" stroke="black" d="M418.627,-900.104C426.591,-908.552 436.35,-918.901 445.116,-928.199"/>
<polygon fill="black" stroke="black" points="442.779,-930.822 452.185,-935.697 447.872,-926.02 442.779,-930.822"/>
</g>
<!-- Bourne shell -->
<g id="node17" class="node"><title>Bourne shell</title>
<polygon fill="chartreuse" stroke="chartreuse" points="486.5,-828 400.5,-828 400.5,-792 486.5,-792 486.5,-828"/>
<text text-anchor="middle" x="443.5" y="-806.3" font-family="Times New Roman,serif" font-size="14.00">Bourne shell</text>
</g>
<!-- Bourne shell&#45;&gt;Thompson shell -->
<g id="edge14" class="edge"><title>Bourne shell&#45;&gt;Thompson shell</title>
<path fill="none" stroke="black" d="M446.526,-828.189C450.793,-852.424 458.621,-896.888 463.69,-925.679"/>
<polygon fill="black" stroke="black" points="460.303,-926.63 465.484,-935.871 467.197,-925.416 460.303,-926.63"/>
</g>
<!-- rc -->
<g id="node18" class="node"><title>rc</title>
<polygon fill="chartreuse" stroke="chartreuse" points="325.5,-540 271.5,-540 271.5,-504 325.5,-504 325.5,-540"/>
<text text-anchor="middle" x="298.5" y="-518.3" font-family="Times New Roman,serif" font-size="14.00">rc</text>
</g>
<!-- rc&#45;&gt;Bourne shell -->
<g id="edge27" class="edge"><title>rc&#45;&gt;Bourne shell</title>
<path fill="none" stroke="black" d="M300.327,-540.271C302.689,-558.61 307.717,-588.177 317.5,-612 344.986,-678.928 395.265,-748.142 423.283,-784.025"/>
<polygon fill="black" stroke="black" points="420.628,-786.311 429.569,-791.995 426.124,-781.975 420.628,-786.311"/>
</g>
<!-- KornShell -->
<g id="node19" class="node"><title>KornShell</title>
<polygon fill="chartreuse" stroke="chartreuse" points="587.5,-684 515.5,-684 515.5,-648 587.5,-648 587.5,-684"/>
<text text-anchor="middle" x="551.5" y="-662.3" font-family="Times New Roman,serif" font-size="14.00">KornShell</text>
</g>
<!-- KornShell&#45;&gt;Bourne shell -->
<g id="edge16" class="edge"><title>KornShell&#45;&gt;Bourne shell</title>
<path fill="none" stroke="black" d="M538.426,-684.189C519.588,-708.958 484.68,-754.856 462.85,-783.558"/>
<polygon fill="black" stroke="black" points="459.795,-781.793 456.527,-791.871 465.367,-786.031 459.795,-781.793"/>
</g>
<!-- ksh88 -->
<g id="node20" class="node"><title>ksh88</title>
<polygon fill="chartreuse" stroke="chartreuse" points="566.5,-612 512.5,-612 512.5,-576 566.5,-576 566.5,-612"/>
<text text-anchor="middle" x="539.5" y="-590.3" font-family="Times New Roman,serif" font-size="14.00">ksh88</text>
</g>
<!-- ksh88&#45;&gt;KornShell -->
<g id="edge21" class="edge"><title>ksh88&#45;&gt;KornShell</title>
<path fill="none" stroke="black" d="M542.432,-612.104C543.75,-619.791 545.338,-629.054 546.814,-637.665"/>
<polygon fill="black" stroke="black" points="543.394,-638.432 548.534,-647.697 550.294,-637.249 543.394,-638.432"/>
</g>
<!-- ksh93 -->
<g id="node21" class="node"><title>ksh93</title>
<polygon fill="chartreuse" stroke="chartreuse" points="621.5,-468 567.5,-468 567.5,-432 621.5,-432 621.5,-468"/>
<text text-anchor="middle" x="594.5" y="-446.3" font-family="Times New Roman,serif" font-size="14.00">ksh93</text>
</g>
<!-- ksh93&#45;&gt;KornShell -->
<g id="edge22" class="edge"><title>ksh93&#45;&gt;KornShell</title>
<path fill="none" stroke="black" d="M594.192,-468.254C593.281,-498.09 589.682,-561.023 575.5,-612 573.009,-620.953 569.209,-630.316 565.363,-638.638"/>
<polygon fill="black" stroke="black" points="562.113,-637.317 560.901,-647.842 568.412,-640.37 562.113,-637.317"/>
</g>
<!-- C shell -->
<g id="node22" class="node"><title>C shell</title>
<polygon fill="plum" stroke="plum" points="611,-828 556,-828 556,-792 611,-792 611,-828"/>
<text text-anchor="middle" x="583.5" y="-806.3" font-family="Times New Roman,serif" font-size="14.00">C shell</text>
</g>
<!-- C shell&#45;&gt;Thompson shell -->
<g id="edge36" class="edge"><title>C shell&#45;&gt;Thompson shell</title>
<path fill="none" stroke="grey" stroke-dasharray="5,2" d="M569.579,-828.189C549.433,-853.065 512.028,-899.252 488.804,-927.929"/>
<polygon fill="grey" stroke="grey" points="485.945,-925.898 482.372,-935.871 491.385,-930.303 485.945,-925.898"/>
</g>
<!-- BRL shell -->
<g id="node23" class="node"><title>BRL shell</title>
<polygon fill="plum" stroke="plum" points="270.5,-612 198.5,-612 198.5,-576 270.5,-576 270.5,-612"/>
<text text-anchor="middle" x="234.5" y="-590.3" font-family="Times New Roman,serif" font-size="14.00">BRL shell</text>
</g>
<!-- Forsyth shell -->
<g id="node24" class="node"><title>Forsyth shell</title>
<polygon fill="plum" stroke="plum" points="329,-828 240,-828 240,-792 329,-792 329,-828"/>
<text text-anchor="middle" x="284.5" y="-806.3" font-family="Times New Roman,serif" font-size="14.00">Forsyth shell</text>
</g>
<!-- Forsyth shell&#45;&gt;Bourne shell -->
<g id="edge33" class="edge"><title>Forsyth shell&#45;&gt;Bourne shell</title>
<path fill="none" stroke="grey" stroke-dasharray="5,2" d="M329.219,-810C349.459,-810 369.699,-810 389.939,-810"/>
<polygon fill="grey" stroke="grey" points="390.198,-813.5 400.198,-810 390.198,-806.5 390.198,-813.5"/>
</g>
<!-- tcsh -->
<g id="node25" class="node"><title>tcsh</title>
<polygon fill="plum" stroke="plum" points="684.5,-684 630.5,-684 630.5,-648 684.5,-648 684.5,-684"/>
<text text-anchor="middle" x="657.5" y="-662.3" font-family="Times New Roman,serif" font-size="14.00">tcsh</text>
</g>
<!-- tcsh&#45;&gt;C shell -->
<g id="edge28" class="edge"><title>tcsh&#45;&gt;C shell</title>
<path fill="none" stroke="black" d="M648.542,-684.189C635.746,-708.745 612.127,-754.066 597.147,-782.812"/>
<polygon fill="black" stroke="black" points="593.944,-781.386 592.426,-791.871 600.151,-784.621 593.944,-781.386"/>
</g>
<!-- Almquist shell -->
<g id="node26" class="node"><title>Almquist shell</title>
<polygon fill="plum" stroke="plum" points="422,-612 327,-612 327,-576 422,-576 422,-612"/>
<text text-anchor="middle" x="374.5" y="-590.3" font-family="Times New Roman,serif" font-size="14.00">Almquist shell</text>
</g>
<!-- Almquist shell&#45;&gt;Bourne shell -->
<g id="edge35" class="edge"><title>Almquist shell&#45;&gt;Bourne shell</title>
<path fill="none" stroke="grey" stroke-dasharray="5,2" d="M380.056,-612.232C392.066,-649.481 420.518,-737.723 434.884,-782.278"/>
<polygon fill="grey" stroke="grey" points="431.57,-783.406 437.97,-791.849 438.232,-781.258 431.57,-783.406"/>
</g>
<!-- ksh93q -->
<g id="node27" class="node"><title>ksh93q</title>
<polygon fill="plum" stroke="plum" points="678,-108 621,-108 621,-72 678,-72 678,-108"/>
<text text-anchor="middle" x="649.5" y="-86.3" font-family="Times New Roman,serif" font-size="14.00">ksh93q</text>
</g>
<!-- ksh93q&#45;&gt;ksh93 -->
<g id="edge23" class="edge"><title>ksh93q&#45;&gt;ksh93</title>
<path fill="none" stroke="black" d="M649.5,-108.049C649.5,-134.708 649.5,-187.885 649.5,-233 649.5,-307 649.5,-307 649.5,-307 649.5,-349.992 627.307,-395.663 611.116,-423.262"/>
<polygon fill="black" stroke="black" points="608.073,-421.53 605.896,-431.899 614.064,-425.151 608.073,-421.53"/>
</g>
<!-- dash -->
<g id="node28" class="node"><title>dash</title>
<polygon fill="plum" stroke="plum" points="441.5,-180 387.5,-180 387.5,-144 441.5,-144 441.5,-180"/>
<text text-anchor="middle" x="414.5" y="-158.3" font-family="Times New Roman,serif" font-size="14.00">dash</text>
</g>
<!-- dash&#45;&gt;Almquist shell -->
<g id="edge19" class="edge"><title>dash&#45;&gt;Almquist shell</title>
<path fill="none" stroke="black" d="M414.5,-180.049C414.5,-206.708 414.5,-259.885 414.5,-305 414.5,-451 414.5,-451 414.5,-451 414.5,-492.516 398.463,-538.388 386.698,-566.455"/>
<polygon fill="black" stroke="black" points="383.35,-565.381 382.595,-575.949 389.775,-568.158 383.35,-565.381"/>
</g>
<!-- pdksh -->
<g id="node29" class="node"><title>pdksh</title>
<polygon fill="plum" stroke="plum" points="180.5,-612 126.5,-612 126.5,-576 180.5,-576 180.5,-612"/>
<text text-anchor="middle" x="153.5" y="-590.3" font-family="Times New Roman,serif" font-size="14.00">pdksh</text>
</g>
<!-- pdksh&#45;&gt;ksh88 -->
<g id="edge30" class="edge"><title>pdksh&#45;&gt;ksh88</title>
<path fill="none" stroke="grey" stroke-dasharray="5,2" d="M170.581,-612.217C178.346,-619.198 188.115,-626.357 198.5,-630 260.57,-651.773 432.43,-651.773 494.5,-630 501.64,-627.496 508.488,-623.329 514.594,-618.701"/>
<polygon fill="grey" stroke="grey" points="516.952,-621.293 522.419,-612.217 512.486,-615.903 516.952,-621.293"/>
</g>
<!-- pdksh&#45;&gt;BRL shell -->
<g id="edge25" class="edge"><title>pdksh&#45;&gt;BRL shell</title>
<path fill="none" stroke="black" d="M180.711,-594C183.193,-594 185.675,-594 188.157,-594"/>
<polygon fill="black" stroke="black" points="188.361,-597.5 198.36,-594 188.36,-590.5 188.361,-597.5"/>
</g>
<!-- pdksh&#45;&gt;Forsyth shell -->
<g id="edge26" class="edge"><title>pdksh&#45;&gt;Forsyth shell</title>
<path fill="none" stroke="black" d="M164.049,-612.232C186.995,-649.716 241.551,-738.84 268.655,-783.116"/>
<polygon fill="black" stroke="black" points="265.795,-785.148 274.001,-791.849 271.765,-781.493 265.795,-785.148"/>
</g>
<!-- Bash -->
<g id="node30" class="node"><title>Bash</title>
<polygon fill="plum" stroke="plum" points="494.5,-612 440.5,-612 440.5,-576 494.5,-576 494.5,-612"/>
<text text-anchor="middle" x="467.5" y="-590.3" font-family="Times New Roman,serif" font-size="14.00">Bash</text>
</g>
<!-- Bash&#45;&gt;Bourne shell -->
<g id="edge34" class="edge"><title>Bash&#45;&gt;Bourne shell</title>
<path fill="none" stroke="grey" stroke-dasharray="5,2" d="M465.567,-612.232C461.408,-649.324 451.577,-736.981 446.56,-781.712"/>
<polygon fill="grey" stroke="grey" points="443.06,-781.521 445.423,-791.849 450.016,-782.302 443.06,-781.521"/>
</g>
<!-- es -->
<g id="node31" class="node"><title>es</title>
<polygon fill="plum" stroke="plum" points="325.5,-468 271.5,-468 271.5,-432 325.5,-432 325.5,-468"/>
<text text-anchor="middle" x="298.5" y="-446.3" font-family="Times New Roman,serif" font-size="14.00">es</text>
</g>
<!-- es&#45;&gt;rc -->
<g id="edge37" class="edge"><title>es&#45;&gt;rc</title>
<path fill="none" stroke="grey" stroke-dasharray="5,2" d="M298.5,-468.104C298.5,-475.791 298.5,-485.054 298.5,-493.665"/>
<polygon fill="grey" stroke="grey" points="295,-493.697 298.5,-503.697 302,-493.697 295,-493.697"/>
</g>
<!-- zsh -->
<g id="node32" class="node"><title>zsh</title>
<polygon fill="plum" stroke="plum" points="686.5,-540 632.5,-540 632.5,-504 686.5,-504 686.5,-540"/>
<text text-anchor="middle" x="659.5" y="-518.3" font-family="Times New Roman,serif" font-size="14.00">zsh</text>
</g>
<!-- zsh&#45;&gt;KornShell -->
<g id="edge31" class="edge"><title>zsh&#45;&gt;KornShell</title>
<path fill="none" stroke="grey" stroke-dasharray="5,2" d="M651.675,-540.019C642.676,-558.667 626.771,-588.987 608.5,-612 600.295,-622.335 590.055,-632.497 580.527,-641.115"/>
<polygon fill="grey" stroke="grey" points="577.944,-638.726 572.751,-647.96 582.57,-643.98 577.944,-638.726"/>
</g>
<!-- zsh&#45;&gt;tcsh -->
<g id="edge32" class="edge"><title>zsh&#45;&gt;tcsh</title>
<path fill="none" stroke="grey" stroke-dasharray="5,2" d="M659.258,-540.189C658.917,-564.424 658.29,-608.888 657.885,-637.679"/>
<polygon fill="grey" stroke="grey" points="654.383,-637.823 657.741,-647.871 661.382,-637.922 654.383,-637.823"/>
</g>
<!-- dtksh -->
<g id="node33" class="node"><title>dtksh</title>
<polygon fill="plum" stroke="plum" points="566.5,-396 512.5,-396 512.5,-360 566.5,-360 566.5,-396"/>
<text text-anchor="middle" x="539.5" y="-374.3" font-family="Times New Roman,serif" font-size="14.00">dtksh</text>
</g>
<!-- dtksh&#45;&gt;ksh93 -->
<g id="edge20" class="edge"><title>dtksh&#45;&gt;ksh93</title>
<path fill="none" stroke="black" d="M552.939,-396.104C559.443,-404.383 567.383,-414.488 574.574,-423.64"/>
<polygon fill="black" stroke="black" points="571.974,-425.996 580.904,-431.697 577.478,-421.671 571.974,-425.996"/>
</g>
<!-- tksh -->
<g id="node34" class="node"><title>tksh</title>
<polygon fill="plum" stroke="plum" points="621.5,-324 567.5,-324 567.5,-288 621.5,-288 621.5,-324"/>
<text text-anchor="middle" x="594.5" y="-302.3" font-family="Times New Roman,serif" font-size="14.00">tksh</text>
</g>
<!-- tksh&#45;&gt;ksh93 -->
<g id="edge29" class="edge"><title>tksh&#45;&gt;ksh93</title>
<path fill="none" stroke="black" d="M594.5,-324.189C594.5,-348.424 594.5,-392.888 594.5,-421.679"/>
<polygon fill="black" stroke="black" points="591,-421.871 594.5,-431.871 598,-421.872 591,-421.871"/>
</g>
<!-- BusyBox -->
<g id="node35" class="node"><title>BusyBox</title>
<polygon fill="plum" stroke="plum" points="386.5,-252 318.5,-252 318.5,-216 386.5,-216 386.5,-252"/>
<text text-anchor="middle" x="352.5" y="-230.3" font-family="Times New Roman,serif" font-size="14.00">BusyBox</text>
</g>
<!-- BusyBox&#45;&gt;Almquist shell -->
<g id="edge15" class="edge"><title>BusyBox&#45;&gt;Almquist shell</title>
<path fill="none" stroke="black" d="M354.871,-252.01C358.368,-278.617 364.5,-331.725 364.5,-377 364.5,-451 364.5,-451 364.5,-451 364.5,-491.103 368.518,-537.42 371.46,-565.96"/>
<polygon fill="black" stroke="black" points="367.987,-566.404 372.524,-575.978 374.948,-565.664 367.987,-566.404"/>
</g>
<!-- mksh -->
<g id="node36" class="node"><title>mksh</title>
<polygon fill="plum" stroke="plum" points="158.5,-180 104.5,-180 104.5,-144 158.5,-144 158.5,-180"/>
<text text-anchor="middle" x="131.5" y="-158.3" font-family="Times New Roman,serif" font-size="14.00">mksh</text>
</g>
<!-- mksh&#45;&gt;pdksh -->
<g id="edge24" class="edge"><title>mksh&#45;&gt;pdksh</title>
<path fill="none" stroke="black" d="M131.5,-180.049C131.5,-206.708 131.5,-259.885 131.5,-305 131.5,-451 131.5,-451 131.5,-451 131.5,-491.26 140.243,-537.192 146.706,-565.645"/>
<polygon fill="black" stroke="black" points="143.36,-566.707 149.048,-575.646 150.175,-565.111 143.36,-566.707"/>
</g>
<!-- toybox -->
<g id="node37" class="node"><title>toybox</title>
<polygon fill="plum" stroke="plum" points="380.5,-36 324.5,-36 324.5,-0 380.5,-0 380.5,-36"/>
<text text-anchor="middle" x="352.5" y="-14.3" font-family="Times New Roman,serif" font-size="14.00">toybox</text>
</g>
<!-- toybox&#45;&gt;BusyBox -->
<g id="edge38" class="edge"><title>toybox&#45;&gt;BusyBox</title>
<path fill="none" stroke="grey" stroke-dasharray="5,2" d="M352.5,-36.2325C352.5,-73.3243 352.5,-160.981 352.5,-205.712"/>
<polygon fill="grey" stroke="grey" points="349,-205.849 352.5,-215.849 356,-205.849 349,-205.849"/>
</g>
<!-- OpenBSD ksh -->
<g id="node38" class="node"><title>OpenBSD ksh</title>
<polygon fill="plum" stroke="plum" points="257.5,-324 159.5,-324 159.5,-288 257.5,-288 257.5,-324"/>
<text text-anchor="middle" x="208.5" y="-302.3" font-family="Times New Roman,serif" font-size="14.00">OpenBSD ksh</text>
</g>
<!-- OpenBSD ksh&#45;&gt;pdksh -->
<g id="edge17" class="edge"><title>OpenBSD ksh&#45;&gt;pdksh</title>
<path fill="none" stroke="black" d="M205.172,-324.306C195.921,-372.412 169.846,-508.001 158.68,-566.065"/>
<polygon fill="black" stroke="black" points="155.227,-565.485 156.776,-575.966 162.101,-566.807 155.227,-565.485"/>
</g>
</g>
</svg>
