<?xml version="1.0" encoding="UTF-8" standalone="no"?>
<!DOCTYPE svg PUBLIC "-//W3C//DTD SVG 1.1//EN"
 "http://www.w3.org/Graphics/SVG/1.1/DTD/svg11.dtd">
<!-- Generated by graphviz version 12.1.2 (0)
 -->
<!-- Title: shells Pages: 1 -->
<svg width="703pt" height="980pt"
 viewBox="0.00 0.00 703.25 980.00" xmlns="http://www.w3.org/2000/svg" xmlns:xlink="http://www.w3.org/1999/xlink">
<g id="graph0" class="graph" transform="scale(1 1) rotate(0) translate(4 976)">
<title>shells</title>
<polygon fill="white" stroke="none" points="-4,4 -4,-976 699.25,-976 699.25,4 -4,4"/>
<!-- 1971 -->
<g id="node1" class="node">
<title>1971</title>
<text text-anchor="middle" x="37.25" y="-948.58" font-family="Times,serif" font-size="14.00">1971</text>
</g>
<!-- 1975&#45;1977 -->
<g id="node2" class="node">
<title>1975&#45;1977</title>
<text text-anchor="middle" x="37.25" y="-876.58" font-family="Times,serif" font-size="14.00">1975&#45;1977</text>
</g>
<!-- 1971&#45;&gt;1975&#45;1977 -->
<!-- 1978 -->
<g id="node3" class="node">
<title>1978</title>
<text text-anchor="middle" x="37.25" y="-804.58" font-family="Times,serif" font-size="14.00">1978</text>
</g>
<!-- 1975&#45;1977&#45;&gt;1978 -->
<!-- 1979 -->
<g id="node4" class="node">
<title>1979</title>
<text text-anchor="middle" x="37.25" y="-732.58" font-family="Times,serif" font-size="14.00">1979</text>
</g>
<!-- 1978&#45;&gt;1979 -->
<!-- 1983 -->
<g id="node5" class="node">
<title>1983</title>
<text text-anchor="middle" x="37.25" y="-660.58" font-family="Times,serif" font-size="14.00">1983</text>
</g>
<!-- 1979&#45;&gt;1983 -->
<!-- 1987&#45;1989 -->
<g id="node6" class="node">
<title>1987&#45;1989</title>
<text text-anchor="middle" x="37.25" y="-588.58" font-family="Times,serif" font-size="14.00">1987&#45;1989</text>
</g>
<!-- 1983&#45;&gt;1987&#45;1989 -->
<!-- 1990 -->
<g id="node7" class="node">
<title>1990</title>
<text text-anchor="middle" x="37.25" y="-516.58" font-family="Times,serif" font-size="14.00">1990</text>
</g>
<!-- 1987&#45;1989&#45;&gt;1990 -->
<!-- 1993 -->
<g id="node8" class="node">
<title>1993</title>
<text text-anchor="middle" x="37.25" y="-444.57" font-family="Times,serif" font-size="14.00">1993</text>
</g>
<!-- 1990&#45;&gt;1993 -->
<!-- 1995 -->
<g id="node9" class="node">
<title>1995</title>
<text text-anchor="middle" x="37.25" y="-372.57" font-family="Times,serif" font-size="14.00">1995</text>
</g>
<!-- 1993&#45;&gt;1995 -->
<!-- 1996 -->
<g id="node10" class="node">
<title>1996</title>
<text text-anchor="middle" x="37.25" y="-300.57" font-family="Times,serif" font-size="14.00">1996</text>
</g>
<!-- 1995&#45;&gt;1996 -->
<!-- 1999 -->
<g id="node11" class="node">
<title>1999</title>
<text text-anchor="middle" x="37.25" y="-228.57" font-family="Times,serif" font-size="14.00">1999</text>
</g>
<!-- 1996&#45;&gt;1999 -->
<!-- 2002 -->
<g id="node12" class="node">
<title>2002</title>
<text text-anchor="middle" x="37.25" y="-156.57" font-family="Times,serif" font-size="14.00">2002</text>
</g>
<!-- 1999&#45;&gt;2002 -->
<!-- 2005 -->
<g id="node13" class="node">
<title>2005</title>
<text text-anchor="middle" x="37.25" y="-84.58" font-family="Times,serif" font-size="14.00">2005</text>
</g>
<!-- 2002&#45;&gt;2005 -->
<!-- 2006 -->
<g id="node14" class="node">
<title>2006</title>
<text text-anchor="middle" x="37.25" y="-12.57" font-family="Times,serif" font-size="14.00">2006</text>
</g>
<!-- 2005&#45;&gt;2006 -->
<!-- Thompson shell -->
<g id="node15" class="node">
<title>Thompson shell</title>
<polygon fill="chartreuse" stroke="chartreuse" points="512.75,-972 409.75,-972 409.75,-936 512.75,-936 512.75,-972"/>
<text text-anchor="middle" x="461.25" y="-948.58" font-family="Times,serif" font-size="14.00">Thompson shell</text>
</g>
<!-- PWB shell -->
<g id="node16" class="node">
<title>PWB shell</title>
<polygon fill="chartreuse" stroke="chartreuse" points="432.88,-900 357.62,-900 357.62,-864 432.88,-864 432.88,-900"/>
<text text-anchor="middle" x="395.25" y="-876.58" font-family="Times,serif" font-size="14.00">PWB shell</text>
</g>
<!-- PWB shell&#45;&gt;Thompson shell -->
<g id="edge18" class="edge">
<title>PWB shell&#45;&gt;Thompson shell</title>
<path fill="none" stroke="black" d="M411.38,-900.1C419.1,-908.3 428.52,-918.28 437.07,-927.36"/>
<polygon fill="black" stroke="black" points="434.49,-929.72 443.9,-934.6 439.58,-924.92 434.49,-929.72"/>
</g>
<!-- Bourne shell -->
<g id="node17" class="node">
<title>Bourne shell</title>
<polygon fill="chartreuse" stroke="chartreuse" points="467.38,-828 383.12,-828 383.12,-792 467.38,-792 467.38,-828"/>
<text text-anchor="middle" x="425.25" y="-804.58" font-family="Times,serif" font-size="14.00">Bourne shell</text>
</g>
<!-- Bourne shell&#45;&gt;Thompson shell -->
<g id="edge14" class="edge">
<title>Bourne shell&#45;&gt;Thompson shell</title>
<path fill="none" stroke="black" d="M431.2,-828.06C434.68,-838.38 439.02,-851.86 442.25,-864 447.6,-884.1 452.47,-907.05 455.94,-924.62"/>
<polygon fill="black" stroke="black" points="452.49,-925.18 457.82,-934.33 459.36,-923.85 452.49,-925.18"/>
</g>
<!-- rc -->
<g id="node18" class="node">
<title>rc</title>
<polygon fill="chartreuse" stroke="chartreuse" points="331.25,-540 277.25,-540 277.25,-504 331.25,-504 331.25,-540"/>
<text text-anchor="middle" x="304.25" y="-516.58" font-family="Times,serif" font-size="14.00">rc</text>
</g>
<!-- rc&#45;&gt;Bourne shell -->
<g id="edge27" class="edge">
<title>rc&#45;&gt;Bourne shell</title>
<path fill="none" stroke="black" d="M307.88,-540.37C311.92,-558.54 319.11,-587.74 328.25,-612 351.97,-674.93 389.06,-744.68 409.83,-781.97"/>
<polygon fill="black" stroke="black" points="406.55,-783.26 414.49,-790.27 412.65,-779.84 406.55,-783.26"/>
</g>
<!-- KornShell -->
<g id="node19" class="node">
<title>KornShell</title>
<polygon fill="chartreuse" stroke="chartreuse" points="596,-684 524.5,-684 524.5,-648 596,-648 596,-684"/>
<text text-anchor="middle" x="560.25" y="-660.58" font-family="Times,serif" font-size="14.00">KornShell</text>
</g>
<!-- KornShell&#45;&gt;Bourne shell -->
<g id="edge16" class="edge">
<title>KornShell&#45;&gt;Bourne shell</title>
<path fill="none" stroke="black" d="M543.98,-684.11C520.54,-708.77 477.06,-754.5 449.73,-783.25"/>
<polygon fill="black" stroke="black" points="447.2,-780.83 442.85,-790.49 452.27,-785.66 447.2,-780.83"/>
</g>
<!-- ksh88 -->
<g id="node20" class="node">
<title>ksh88</title>
<polygon fill="chartreuse" stroke="chartreuse" points="575.25,-612 521.25,-612 521.25,-576 575.25,-576 575.25,-612"/>
<text text-anchor="middle" x="548.25" y="-588.58" font-family="Times,serif" font-size="14.00">ksh88</text>
</g>
<!-- ksh88&#45;&gt;KornShell -->
<g id="edge21" class="edge">
<title>ksh88&#45;&gt;KornShell</title>
<path fill="none" stroke="black" d="M551.18,-612.1C552.44,-619.45 553.95,-628.24 555.37,-636.53"/>
<polygon fill="black" stroke="black" points="551.89,-636.94 557.03,-646.2 558.79,-635.76 551.89,-636.94"/>
</g>
<!-- ksh93 -->
<g id="node21" class="node">
<title>ksh93</title>
<polygon fill="chartreuse" stroke="chartreuse" points="630.25,-468 576.25,-468 576.25,-432 630.25,-432 630.25,-468"/>
<text text-anchor="middle" x="603.25" y="-444.57" font-family="Times,serif" font-size="14.00">ksh93</text>
</g>
<!-- ksh93&#45;&gt;KornShell -->
<g id="edge22" class="edge">
<title>ksh93&#45;&gt;KornShell</title>
<path fill="none" stroke="black" d="M602.94,-468.25C602.03,-498.09 598.43,-561.02 584.25,-612 581.87,-620.56 578.29,-629.5 574.61,-637.55"/>
<polygon fill="black" stroke="black" points="571.5,-635.95 570.31,-646.48 577.8,-638.99 571.5,-635.95"/>
</g>
<!-- C shell -->
<g id="node22" class="node">
<title>C shell</title>
<polygon fill="plum" stroke="plum" points="601.38,-828 547.12,-828 547.12,-792 601.38,-792 601.38,-828"/>
<text text-anchor="middle" x="574.25" y="-804.58" font-family="Times,serif" font-size="14.00">C shell</text>
</g>
<!-- C shell&#45;&gt;Thompson shell -->
<g id="edge36" class="edge">
<title>C shell&#45;&gt;Thompson shell</title>
<path fill="none" stroke="grey" stroke-dasharray="5,2" d="M560.63,-828.11C541.09,-852.67 504.93,-898.11 482.04,-926.88"/>
<polygon fill="grey" stroke="grey" points="479.54,-924.4 476.05,-934.4 485.01,-928.76 479.54,-924.4"/>
</g>
<!-- BRL shell -->
<g id="node23" class="node">
<title>BRL shell</title>
<polygon fill="plum" stroke="plum" points="281.62,-612 210.88,-612 210.88,-576 281.62,-576 281.62,-612"/>
<text text-anchor="middle" x="246.25" y="-588.58" font-family="Times,serif" font-size="14.00">BRL shell</text>
</g>
<!-- Forsyth shell -->
<g id="node24" class="node">
<title>Forsyth shell</title>
<polygon fill="plum" stroke="plum" points="359.75,-828 274.75,-828 274.75,-792 359.75,-792 359.75,-828"/>
<text text-anchor="middle" x="317.25" y="-804.58" font-family="Times,serif" font-size="14.00">Forsyth shell</text>
</g>
<!-- Forsyth shell&#45;&gt;Bourne shell -->
<g id="edge33" class="edge">
<title>Forsyth shell&#45;&gt;Bourne shell</title>
<path fill="none" stroke="grey" stroke-dasharray="5,2" d="M359.86,-810C363.69,-810 367.52,-810 371.35,-810"/>
<polygon fill="grey" stroke="grey" points="371.33,-813.5 381.33,-810 371.33,-806.5 371.33,-813.5"/>
</g>
<!-- tcsh -->
<g id="node25" class="node">
<title>tcsh</title>
<polygon fill="plum" stroke="plum" points="693.25,-684 639.25,-684 639.25,-648 693.25,-648 693.25,-684"/>
<text text-anchor="middle" x="666.25" y="-660.58" font-family="Times,serif" font-size="14.00">tcsh</text>
</g>
<!-- tcsh&#45;&gt;C shell -->
<g id="edge28" class="edge">
<title>tcsh&#45;&gt;C shell</title>
<path fill="none" stroke="black" d="M655.16,-684.11C639.39,-708.45 610.32,-753.32 591.66,-782.13"/>
<polygon fill="black" stroke="black" points="588.85,-780.02 586.35,-790.32 594.73,-783.83 588.85,-780.02"/>
</g>
<!-- Almquist shell -->
<g id="node26" class="node">
<title>Almquist shell</title>
<polygon fill="plum" stroke="plum" points="431.62,-612 336.88,-612 336.88,-576 431.62,-576 431.62,-612"/>
<text text-anchor="middle" x="384.25" y="-588.58" font-family="Times,serif" font-size="14.00">Almquist shell</text>
</g>
<!-- Almquist shell&#45;&gt;Bourne shell -->
<g id="edge35" class="edge">
<title>Almquist shell&#45;&gt;Bourne shell</title>
<path fill="none" stroke="grey" stroke-dasharray="5,2" d="M387.55,-612.23C394.6,-649.01 411.17,-735.5 419.8,-780.57"/>
<polygon fill="grey" stroke="grey" points="416.36,-781.2 421.68,-790.36 423.24,-779.88 416.36,-781.2"/>
</g>
<!-- ksh93q -->
<g id="node27" class="node">
<title>ksh93q</title>
<polygon fill="plum" stroke="plum" points="630.38,-108 576.12,-108 576.12,-72 630.38,-72 630.38,-108"/>
<text text-anchor="middle" x="603.25" y="-84.58" font-family="Times,serif" font-size="14.00">ksh93q</text>
</g>
<!-- ksh93q&#45;&gt;ksh93 -->
<g id="edge23" class="edge">
<title>ksh93q&#45;&gt;ksh93</title>
<path fill="none" stroke="black" d="M603.25,-108.49C603.25,-135.29 603.25,-188.13 603.25,-233 603.25,-307 603.25,-307 603.25,-307 603.25,-346.26 603.25,-391.62 603.25,-420.31"/>
<polygon fill="black" stroke="black" points="599.75,-420 603.25,-430 606.75,-420 599.75,-420"/>
</g>
<!-- dash -->
<g id="node28" class="node">
<title>dash</title>
<polygon fill="plum" stroke="plum" points="386.25,-180 332.25,-180 332.25,-144 386.25,-144 386.25,-180"/>
<text text-anchor="middle" x="359.25" y="-156.57" font-family="Times,serif" font-size="14.00">dash</text>
</g>
<!-- dash&#45;&gt;Almquist shell -->
<g id="edge19" class="edge">
<title>dash&#45;&gt;Almquist shell</title>
<path fill="none" stroke="black" d="M359.25,-180.49C359.25,-207.29 359.25,-260.13 359.25,-305 359.25,-451 359.25,-451 359.25,-451 359.25,-490.86 368.92,-536.08 376.24,-564.57"/>
<polygon fill="black" stroke="black" points="372.85,-565.46 378.8,-574.22 379.62,-563.66 372.85,-565.46"/>
</g>
<!-- pdksh -->
<g id="node29" class="node">
<title>pdksh</title>
<polygon fill="plum" stroke="plum" points="193.25,-612 139.25,-612 139.25,-576 193.25,-576 193.25,-612"/>
<text text-anchor="middle" x="166.25" y="-588.58" font-family="Times,serif" font-size="14.00">pdksh</text>
</g>
<!-- pdksh&#45;&gt;ksh88 -->
<g id="edge30" class="edge">
<title>pdksh&#45;&gt;ksh88</title>
<path fill="none" stroke="grey" stroke-dasharray="5,2" d="M183.33,-612.22C191.1,-619.2 200.87,-626.36 211.25,-630 272.48,-651.48 442.02,-651.48 503.25,-630 510.07,-627.61 516.61,-623.7 522.51,-619.33"/>
<polygon fill="grey" stroke="grey" points="524.49,-622.23 530,-613.18 520.05,-616.82 524.49,-622.23"/>
</g>
<!-- pdksh&#45;&gt;BRL shell -->
<g id="edge25" class="edge">
<title>pdksh&#45;&gt;BRL shell</title>
<path fill="none" stroke="black" d="M193.75,-594C195.59,-594 197.43,-594 199.27,-594"/>
<polygon fill="black" stroke="black" points="199.05,-597.5 209.05,-594 199.05,-590.5 199.05,-597.5"/>
</g>
<!-- pdksh&#45;&gt;Forsyth shell -->
<g id="edge26" class="edge">
<title>pdksh&#45;&gt;Forsyth shell</title>
<path fill="none" stroke="black" d="M178.41,-612.23C204.75,-649.56 267.22,-738.09 298.59,-782.56"/>
<polygon fill="black" stroke="black" points="295.65,-784.46 304.28,-790.61 301.37,-780.42 295.65,-784.46"/>
</g>
<!-- Bash -->
<g id="node30" class="node">
<title>Bash</title>
<polygon fill="plum" stroke="plum" points="503.25,-612 449.25,-612 449.25,-576 503.25,-576 503.25,-612"/>
<text text-anchor="middle" x="476.25" y="-588.58" font-family="Times,serif" font-size="14.00">Bash</text>
</g>
<!-- Bash&#45;&gt;Bourne shell -->
<g id="edge34" class="edge">
<title>Bash&#45;&gt;Bourne shell</title>
<path fill="none" stroke="grey" stroke-dasharray="5,2" d="M472.14,-612.23C463.36,-649.09 442.68,-735.87 431.96,-780.86"/>
<polygon fill="grey" stroke="grey" points="428.6,-779.84 429.69,-790.38 435.41,-781.46 428.6,-779.84"/>
</g>
<!-- es -->
<g id="node31" class="node">
<title>es</title>
<polygon fill="plum" stroke="plum" points="331.25,-468 277.25,-468 277.25,-432 331.25,-432 331.25,-468"/>
<text text-anchor="middle" x="304.25" y="-444.57" font-family="Times,serif" font-size="14.00">es</text>
</g>
<!-- es&#45;&gt;rc -->
<g id="edge37" class="edge">
<title>es&#45;&gt;rc</title>
<path fill="none" stroke="grey" stroke-dasharray="5,2" d="M304.25,-468.1C304.25,-475.37 304.25,-484.04 304.25,-492.24"/>
<polygon fill="grey" stroke="grey" points="300.75,-492.18 304.25,-502.18 307.75,-492.18 300.75,-492.18"/>
</g>
<!-- zsh -->
<g id="node32" class="node">
<title>zsh</title>
<polygon fill="plum" stroke="plum" points="695.25,-540 641.25,-540 641.25,-504 695.25,-504 695.25,-540"/>
<text text-anchor="middle" x="668.25" y="-516.58" font-family="Times,serif" font-size="14.00">zsh</text>
</g>
<!-- zsh&#45;&gt;KornShell -->
<g id="edge31" class="edge">
<title>zsh&#45;&gt;KornShell</title>
<path fill="none" stroke="grey" stroke-dasharray="5,2" d="M660.26,-540.36C651.23,-559.03 635.41,-589.13 617.25,-612 609.35,-621.94 599.58,-631.73 590.36,-640.13"/>
<polygon fill="grey" stroke="grey" points="588.08,-637.48 582.91,-646.72 592.72,-642.72 588.08,-637.48"/>
</g>
<!-- zsh&#45;&gt;tcsh -->
<g id="edge32" class="edge">
<title>zsh&#45;&gt;tcsh</title>
<path fill="none" stroke="grey" stroke-dasharray="5,2" d="M668.01,-540.11C667.67,-563.92 667.06,-607.37 666.66,-636.22"/>
<polygon fill="grey" stroke="grey" points="663.16,-636.03 666.52,-646.07 670.16,-636.12 663.16,-636.03"/>
</g>
<!-- dtksh -->
<g id="node33" class="node">
<title>dtksh</title>
<polygon fill="plum" stroke="plum" points="685.25,-396 631.25,-396 631.25,-360 685.25,-360 685.25,-396"/>
<text text-anchor="middle" x="658.25" y="-372.57" font-family="Times,serif" font-size="14.00">dtksh</text>
</g>
<!-- dtksh&#45;&gt;ksh93 -->
<g id="edge20" class="edge">
<title>dtksh&#45;&gt;ksh93</title>
<path fill="none" stroke="black" d="M644.81,-396.1C638.51,-404.13 630.85,-413.87 623.84,-422.8"/>
<polygon fill="black" stroke="black" points="621.21,-420.48 617.78,-430.51 626.71,-424.81 621.21,-420.48"/>
</g>
<!-- tksh -->
<g id="node34" class="node">
<title>tksh</title>
<polygon fill="plum" stroke="plum" points="575.25,-324 521.25,-324 521.25,-288 575.25,-288 575.25,-324"/>
<text text-anchor="middle" x="548.25" y="-300.57" font-family="Times,serif" font-size="14.00">tksh</text>
</g>
<!-- tksh&#45;&gt;ksh93 -->
<g id="edge29" class="edge">
<title>tksh&#45;&gt;ksh93</title>
<path fill="none" stroke="black" d="M554.88,-324.11C564.18,-348.14 581.23,-392.15 592.4,-420.99"/>
<polygon fill="black" stroke="black" points="589.08,-422.12 595.96,-430.18 595.61,-419.59 589.08,-422.12"/>
</g>
<!-- BusyBox -->
<g id="node35" class="node">
<title>BusyBox</title>
<polygon fill="plum" stroke="plum" points="453,-252 387.5,-252 387.5,-216 453,-216 453,-252"/>
<text text-anchor="middle" x="420.25" y="-228.57" font-family="Times,serif" font-size="14.00">BusyBox</text>
</g>
<!-- BusyBox&#45;&gt;Almquist shell -->
<g id="edge15" class="edge">
<title>BusyBox&#45;&gt;Almquist shell</title>
<path fill="none" stroke="black" d="M420.25,-252.49C420.25,-279.29 420.25,-332.13 420.25,-377 420.25,-451 420.25,-451 420.25,-451 420.25,-491.68 406.19,-536.97 395.65,-565.22"/>
<polygon fill="black" stroke="black" points="392.42,-563.87 392.08,-574.46 398.95,-566.39 392.42,-563.87"/>
</g>
<!-- mksh -->
<g id="node36" class="node">
<title>mksh</title>
<polygon fill="plum" stroke="plum" points="231.25,-180 177.25,-180 177.25,-144 231.25,-144 231.25,-180"/>
<text text-anchor="middle" x="204.25" y="-156.57" font-family="Times,serif" font-size="14.00">mksh</text>
</g>
<!-- mksh&#45;&gt;pdksh -->
<g id="edge24" class="edge">
<title>mksh&#45;&gt;pdksh</title>
<path fill="none" stroke="black" d="M204.25,-180.49C204.25,-207.29 204.25,-260.13 204.25,-305 204.25,-451 204.25,-451 204.25,-451 204.25,-491.82 189.41,-537.07 178.28,-565.28"/>
<polygon fill="black" stroke="black" points="175.05,-563.92 174.51,-574.51 181.53,-566.57 175.05,-563.92"/>
</g>
<!-- toybox -->
<g id="node37" class="node">
<title>toybox</title>
<polygon fill="plum" stroke="plum" points="508.25,-36 454.25,-36 454.25,0 508.25,0 508.25,-36"/>
<text text-anchor="middle" x="481.25" y="-12.57" font-family="Times,serif" font-size="14.00">toybox</text>
</g>
<!-- toybox&#45;&gt;Bash -->
<g id="edge38" class="edge">
<title>toybox&#45;&gt;Bash</title>
<path fill="none" stroke="grey" stroke-dasharray="5,2" d="M481.25,-36.49C481.25,-63.29 481.25,-116.13 481.25,-161 481.25,-451 481.25,-451 481.25,-451 481.25,-490.28 479.32,-535.64 477.85,-564.32"/>
<polygon fill="grey" stroke="grey" points="474.37,-563.84 477.34,-574.01 481.36,-564.21 474.37,-563.84"/>
</g>
<!-- OpenBSD ksh -->
<g id="node38" class="node">
<title>OpenBSD ksh</title>
<polygon fill="plum" stroke="plum" points="176.25,-324 82.25,-324 82.25,-288 176.25,-288 176.25,-324"/>
<text text-anchor="middle" x="129.25" y="-300.57" font-family="Times,serif" font-size="14.00">OpenBSD ksh</text>
</g>
<!-- OpenBSD ksh&#45;&gt;pdksh -->
<g id="edge17" class="edge">
<title>OpenBSD ksh&#45;&gt;pdksh</title>
<path fill="none" stroke="black" d="M131.48,-324.23C137.64,-371.84 154.93,-505.53 162.56,-564.47"/>
<polygon fill="black" stroke="black" points="159.04,-564.57 163.8,-574.04 165.98,-563.67 159.04,-564.57"/>
</g>
</g>
</svg>
